<svg width="262" height="186" viewBox="0 0 262 186" fill="none" xmlns="http://www.w3.org/2000/svg">
<path d="M1.82992 170.361C1.43485 170.747 1.42745 171.38 1.81338 171.775L8.10247 178.213C8.4884 178.608 9.12152 178.615 9.51659 178.229C9.91166 177.843 9.91907 177.21 9.53313 176.815L3.94283 171.093L9.66545 165.502C10.0605 165.116 10.0679 164.483 9.682 164.088C9.29607 163.693 8.66295 163.686 8.26787 164.072L1.82992 170.361ZM261.226 1.40808C260.533 1.39997 259.844 1.3978 259.158 1.40149L259.169 3.40146C259.843 3.39783 260.521 3.39997 261.203 3.40794L261.226 1.40808ZM255.082 1.49345C253.736 1.5472 252.403 1.62386 251.084 1.72288L251.233 3.71727C252.53 3.62 253.839 3.54468 255.161 3.49186L255.082 1.49345ZM247.017 2.10277C245.664 2.25426 244.325 2.42959 242.999 2.62814L243.295 4.60608C244.597 4.41121 245.911 4.23909 247.239 4.09035L247.017 2.10277ZM239.026 3.29948C237.681 3.55283 236.35 3.83036 235.032 4.13138L235.478 6.08114C236.77 5.78582 238.076 5.51351 239.396 5.26492L239.026 3.29948ZM231.12 5.10414C229.804 5.45808 228.502 5.83567 227.213 6.23615L227.806 8.14608C229.071 7.75315 230.348 7.38271 231.639 7.03548L231.12 5.10414ZM223.366 7.51239C222.09 7.96284 220.827 8.43588 219.577 8.93074L220.313 10.7904C221.54 10.3046 222.78 9.84036 224.032 9.39833L223.366 7.51239ZM215.83 10.4946C214.594 11.0376 213.37 11.602 212.158 12.1869L213.027 13.9881C214.218 13.4134 215.42 12.859 216.634 12.3258L215.83 10.4946ZM208.537 14.0139C207.341 14.6432 206.158 15.2925 204.985 15.961L205.976 17.6984C207.129 17.0408 208.293 16.4023 209.468 15.7836L208.537 14.0139ZM201.503 18.0221C200.353 18.7275 199.214 19.4513 198.086 20.1925L199.184 21.8642C200.296 21.1339 201.417 20.4212 202.549 19.7267L201.503 18.0221ZM194.735 22.4645C193.633 23.2354 192.541 24.0227 191.457 24.8257L192.648 26.4324C193.717 25.64 194.795 24.8634 195.882 24.1034L194.735 22.4645ZM188.235 27.2812C187.178 28.1081 186.129 28.9498 185.089 29.8053L186.36 31.35C187.388 30.5044 188.423 29.6729 189.467 28.8563L188.235 27.2812ZM181.996 32.4096C180.978 33.2865 179.968 34.1764 178.964 35.0785L180.301 36.5658C181.295 35.6729 182.294 34.7923 183.301 33.9249L181.996 32.4096ZM175.992 37.8043C175.008 38.724 174.031 39.655 173.061 40.5966L174.453 42.0323C175.415 41.0989 176.384 40.1762 177.358 39.2651L175.992 37.8043ZM170.197 43.4206C169.249 44.3717 168.305 45.3325 167.367 46.3021L168.805 47.6928C169.736 46.7301 170.672 45.7766 171.613 44.833L170.197 43.4206ZM164.585 49.2183C163.667 50.1941 162.754 51.1779 161.844 52.169L163.318 53.5212C164.222 52.5359 165.13 51.5583 166.042 50.5888L164.585 49.2183ZM159.13 55.1609C158.237 56.1562 157.348 57.158 156.462 58.1656L157.964 59.4862C158.846 58.4832 159.731 57.4864 160.619 56.4964L159.13 55.1609ZM153.814 61.2052C152.938 62.2191 152.065 63.2381 151.195 64.2615L152.718 65.5572C153.586 64.5374 154.455 63.5223 155.328 62.5125L153.814 61.2052ZM148.599 67.3342C147.736 68.3622 146.876 69.3939 146.016 70.4287L147.555 71.7062C148.412 70.6739 149.271 69.645 150.131 68.6201L148.599 67.3342ZM143.458 73.5246C142.606 74.5593 141.756 75.5964 140.906 76.6353L142.454 77.9013C143.303 76.8638 144.152 75.8284 145.002 74.7956L143.458 73.5246ZM138.364 79.7513C137.519 80.7896 136.674 81.829 135.829 82.869L137.382 84.1299C138.226 83.0903 139.071 82.0514 139.915 81.014L138.364 79.7513ZM133.295 85.9898C132.451 87.0292 131.607 88.0685 130.762 89.107L132.313 90.3693C133.159 89.3301 134.003 88.2902 134.848 87.2506L133.295 85.9898ZM128.224 92.2197C127.377 93.2567 126.529 94.2923 125.679 95.3259L127.224 96.596C128.075 95.5605 128.925 94.5234 129.773 93.4851L128.224 92.2197ZM123.123 98.4228C122.27 99.4526 121.414 100.48 120.557 101.504L122.09 102.788C122.95 101.761 123.807 100.731 124.663 99.6991L123.123 98.4228ZM117.969 104.575C117.103 105.595 116.235 106.612 115.364 107.624L116.88 108.928C117.754 107.913 118.626 106.892 119.494 105.868L117.969 104.575ZM112.737 110.651C111.855 111.658 110.969 112.661 110.08 113.658L111.572 114.989C112.466 113.988 113.356 112.98 114.242 111.968L112.737 110.651ZM107.4 116.629C106.498 117.619 105.591 118.602 104.68 119.578L106.142 120.943C107.059 119.961 107.971 118.972 108.878 117.977L107.4 116.629ZM101.928 122.487C101.004 123.451 100.075 124.407 99.1408 125.355L100.565 126.759C101.506 125.805 102.442 124.842 103.372 123.871L101.928 122.487ZM96.3037 128.187C95.3523 129.122 94.3951 130.047 93.4316 130.962L94.8089 132.412C95.7809 131.489 96.7463 130.556 97.7054 129.614L96.3037 128.187ZM90.503 133.694C89.5183 134.595 88.5269 135.486 87.5284 136.365L88.8496 137.866C89.8584 136.978 90.8596 136.079 91.8536 135.169L90.503 133.694ZM84.5039 138.971C83.4829 139.832 82.4543 140.68 81.4175 141.515L82.6721 143.073C83.7209 142.228 84.7611 141.37 85.7932 140.5L84.5039 138.971ZM78.2825 143.98C77.2243 144.791 76.1575 145.589 75.0816 146.371L76.258 147.989C77.3479 147.196 78.4283 146.388 79.4996 145.567L78.2825 143.98ZM71.8239 148.675C70.7279 149.428 69.6223 150.166 68.5069 150.887L69.5929 152.567C70.7244 151.835 71.8455 151.087 72.9567 150.324L71.8239 148.675ZM65.1267 153.004C63.9897 153.693 62.8423 154.364 61.6842 155.018L62.6674 156.76C63.8437 156.096 65.0087 155.414 66.1628 154.715L65.1267 153.004ZM58.1884 156.919C57.0122 157.535 55.8247 158.132 54.6257 158.711L55.4945 160.512C56.7135 159.924 57.9205 159.317 59.1158 158.691L58.1884 156.919ZM51.0131 160.379C49.8028 160.913 48.5806 161.428 47.3461 161.923L48.0903 163.779C49.3463 163.275 50.5896 162.752 51.8207 162.208L51.0131 160.379ZM43.6105 163.344C42.3738 163.79 41.1249 164.216 39.8633 164.622L40.4751 166.526C41.7592 166.113 43.0304 165.68 44.2889 165.226L43.6105 163.344ZM36.0401 165.775C34.7722 166.133 33.4916 166.47 32.1979 166.786L32.6725 168.729C33.9893 168.408 35.2929 168.064 36.5835 167.7L36.0401 165.775ZM28.3246 167.66C27.0204 167.93 25.703 168.179 24.3721 168.406L24.708 170.377C26.0623 170.147 27.4029 169.894 28.7302 169.619L28.3246 167.66ZM20.4826 169C19.1741 169.177 17.8527 169.334 16.518 169.468L16.7188 171.458C18.0761 171.321 19.42 171.162 20.751 170.982L20.4826 169ZM12.5293 169.804C11.2293 169.891 9.9168 169.959 8.59152 170.006L8.66229 172.004C10.0087 171.957 11.3424 171.888 12.6638 171.799L12.5293 169.804ZM4.57713 170.084C3.9015 170.087 3.22262 170.084 2.5404 170.076L2.51703 172.076C3.20955 172.084 3.89885 172.087 4.58489 172.084L4.57713 170.084ZM1.13114 169.645C0.340993 170.417 0.326182 171.684 1.09804 172.474L13.6762 185.35C14.4481 186.14 15.7143 186.155 16.5045 185.383C17.2946 184.611 17.3094 183.345 16.5376 182.554L5.35695 171.109L16.8022 159.929C17.5923 159.157 17.6071 157.89 16.8353 157.1C16.0634 156.31 14.7972 156.295 14.007 157.067L1.13114 169.645ZM261.238 0.408142C260.539 0.399972 259.844 0.397782 259.152 0.401504L259.174 4.40144C259.843 4.39785 260.515 4.39996 261.191 4.40787L261.238 0.408142ZM255.042 0.494246C253.684 0.548456 252.34 0.62578 251.009 0.725683L251.308 4.71447C252.593 4.61807 253.89 4.54342 255.201 4.49106L255.042 0.494246ZM246.905 1.10899C245.54 1.26185 244.189 1.43878 242.851 1.63916L243.443 5.59505C244.732 5.40202 246.035 5.2315 247.351 5.08414L246.905 1.10899ZM238.841 2.31677C237.483 2.57249 236.139 2.85263 234.809 3.15649L235.7 7.05602C236.981 6.76354 238.274 6.49385 239.581 6.24763L238.841 2.31677ZM230.86 4.13847C229.532 4.49576 228.217 4.87692 226.916 5.28119L228.103 9.10104C229.356 8.71189 230.621 8.34503 231.899 8.00115L230.86 4.13847ZM223.033 6.56942C221.745 7.02407 220.471 7.50151 219.209 8.00092L220.681 11.7202C221.897 11.239 223.125 10.7791 224.365 10.3413L223.033 6.56942ZM215.428 9.57905C214.181 10.1269 212.946 10.6963 211.723 11.2864L213.462 14.8887C214.642 14.3191 215.833 13.7697 217.036 13.2414L215.428 9.57905ZM208.071 13.129C206.865 13.7637 205.672 14.4184 204.49 15.0923L206.471 18.5672C207.615 17.915 208.769 17.2818 209.934 16.6685L208.071 13.129ZM200.98 17.1698C199.821 17.8807 198.674 18.6099 197.537 19.3567L199.733 22.7C200.836 21.9753 201.949 21.268 203.072 20.5791L200.98 17.1698ZM194.162 21.645C193.052 22.4213 191.952 23.214 190.862 24.0224L193.244 27.2358C194.306 26.4487 195.376 25.6775 196.455 24.9228L194.162 21.645ZM187.618 26.4936C186.555 27.3257 185.5 28.1724 184.454 29.0329L186.995 32.1223C188.017 31.2817 189.046 30.4554 190.083 29.6438L187.618 26.4936ZM181.343 31.6519C180.32 32.5336 179.304 33.4282 178.296 34.3348L180.97 37.3095C181.958 36.4211 182.953 35.5452 183.954 34.6826L181.343 31.6519ZM175.309 37.0739C174.321 37.9979 173.339 38.9331 172.364 39.8787L175.149 42.7502C176.107 41.8208 177.071 40.9023 178.041 39.9955L175.309 37.0739ZM169.489 42.7144C168.537 43.6693 167.59 44.6337 166.649 45.6068L169.523 48.3881C170.451 47.4289 171.384 46.4791 172.321 45.5392L169.489 42.7144ZM163.857 48.533C162.936 49.512 162.02 50.4988 161.107 51.4929L164.055 54.1973C164.956 53.215 165.861 52.2404 166.77 51.2741L163.857 48.533ZM158.386 54.4931C157.491 55.491 156.599 56.4953 155.711 57.5053L158.715 60.1465C159.595 59.1459 160.478 58.1516 161.363 57.1642L158.386 54.4931ZM153.057 60.5515C152.18 61.5675 151.305 62.5884 150.433 63.6136L153.48 66.2051C154.346 65.187 155.214 64.1739 156.084 63.1662L153.057 60.5515ZM147.833 66.6913C146.969 67.7208 146.107 68.7538 145.247 69.7899L148.325 72.345C149.181 71.3139 150.038 70.2864 150.897 69.263L147.833 66.6913ZM142.685 72.8891C141.833 73.9248 140.982 74.9627 140.132 76.0023L143.229 78.5343C144.076 77.4975 144.925 76.4629 145.774 75.4311L142.685 72.8891ZM137.589 79.12C136.743 80.1586 135.898 81.1984 135.053 82.2385L138.158 84.7604C139.002 83.7209 139.846 82.6824 140.691 81.6453L137.589 79.12ZM132.519 85.3594C131.675 86.3987 130.831 87.4377 129.986 88.4759L133.089 91.0005C133.935 89.9608 134.78 88.9207 135.624 87.881L132.519 85.3594ZM127.45 91.587C126.603 92.6234 125.755 93.6582 124.907 94.6909L127.996 97.231C128.848 96.1947 129.699 95.1567 130.547 94.1178L127.45 91.587ZM122.353 97.7846C121.501 98.8133 120.646 99.8392 119.79 100.862L122.856 103.43C123.718 102.402 124.576 101.371 125.433 100.337L122.353 97.7846ZM117.206 103.928C116.342 104.947 115.476 105.961 114.606 106.971L117.638 109.581C118.514 108.563 119.387 107.541 120.257 106.515L117.206 103.928ZM111.985 109.992C111.104 110.998 110.221 111.998 109.334 112.992L112.318 115.655C113.214 114.651 114.106 113.641 114.995 112.627L111.985 109.992ZM106.661 115.956C105.761 116.943 104.857 117.923 103.949 118.895L106.873 121.625C107.792 120.64 108.707 119.649 109.617 118.651L106.661 115.956ZM101.206 121.795C100.286 122.756 99.3598 123.709 98.4289 124.653L101.277 127.461C102.222 126.504 103.161 125.537 104.094 124.563L101.206 121.795ZM95.6029 127.474C94.6553 128.405 93.7021 129.326 92.7429 130.237L95.4976 133.137C96.4738 132.21 97.4432 131.273 98.4063 130.327L95.6029 127.474ZM89.8277 132.956C88.8477 133.853 87.8612 134.74 86.8677 135.614L89.5103 138.617C90.5241 137.724 91.5302 136.821 92.5288 135.907L89.8277 132.956ZM83.8592 138.206C82.8438 139.063 81.8209 139.906 80.7902 140.736L83.2994 143.852C84.3542 143.002 85.4002 142.139 86.4379 141.264L83.8592 138.206ZM77.674 143.186C76.6223 143.993 75.5622 144.785 74.4934 145.562L76.8462 148.797C77.9431 148 79.0303 147.187 80.1081 146.36L77.674 143.186ZM71.2575 147.851C70.169 148.599 69.0713 149.332 67.9639 150.048L70.1359 153.407C71.2755 152.67 72.4044 151.916 73.523 151.148L71.2575 147.851ZM64.6086 152.149C63.4802 152.832 62.3417 153.498 61.1926 154.147L63.159 157.63C64.3444 156.961 65.5182 156.274 66.6809 155.57L64.6086 152.149ZM57.7247 156.033C56.558 156.644 55.3803 157.236 54.1913 157.81L55.9288 161.413C57.1579 160.82 58.3747 160.208 59.5796 159.577L57.7247 156.033ZM50.6093 159.464C49.4093 159.993 48.1977 160.504 46.974 160.994L48.4623 164.707C49.7291 164.199 50.983 163.671 52.2245 163.123L50.6093 159.464ZM43.2713 162.404C42.0456 162.846 40.8078 163.268 39.5574 163.67L40.781 167.478C42.0764 167.062 43.3586 166.624 44.6281 166.167L43.2713 162.404ZM35.7684 164.813C34.5119 165.167 33.2427 165.502 31.9606 165.815L32.9098 169.701C34.2382 169.376 35.5532 169.03 36.8551 168.662L35.7684 164.813ZM28.1218 166.681C26.8291 166.949 25.5234 167.195 24.2041 167.42L24.876 171.363C26.2419 171.13 27.5941 170.875 28.933 170.598L28.1218 166.681ZM20.3484 168.009C19.0512 168.185 17.741 168.34 16.4176 168.473L16.8192 172.453C18.1877 172.315 19.5429 172.155 20.8852 171.973L20.3484 168.009ZM12.4621 168.806C11.1727 168.893 9.87085 168.96 8.55614 169.006L8.69768 173.004C10.0546 172.956 11.399 172.887 12.7311 172.797L12.4621 168.806ZM4.57324 169.084C3.90284 169.087 3.22914 169.084 2.55211 169.076L2.50532 173.076C3.20303 173.084 3.89751 173.087 4.58877 173.084L4.57324 169.084Z" fill="#282828"/>
</svg>
