<svg width="212" height="192" viewBox="0 0 212 192" fill="none" xmlns="http://www.w3.org/2000/svg">
<path d="M210.207 176.293C210.597 176.683 210.598 177.317 210.207 177.707L203.843 184.071C203.452 184.462 202.819 184.462 202.429 184.071C202.038 183.681 202.038 183.047 202.429 182.657L208.086 177L202.429 171.343C202.038 170.953 202.038 170.319 202.429 169.929C202.819 169.538 203.453 169.538 203.843 169.929L210.207 176.293ZM3.15558 0.603445C3.41131 1.19676 3.67347 1.79352 3.94198 2.39361L2.11641 3.21047C1.84422 2.60217 1.57836 1.997 1.31892 1.39508L3.15558 0.603445ZM5.62856 6.03323C6.19245 7.21062 6.77911 8.39943 7.38797 9.59892L5.60457 10.5042C4.98901 9.29148 4.39553 8.08888 3.82476 6.89712L5.62856 6.03323ZM9.25332 13.1778C9.86884 14.3292 10.5036 15.4895 11.1571 16.6579L9.41152 17.6341C8.75204 16.455 8.1112 15.2836 7.48951 14.1206L9.25332 13.1778ZM13.1627 20.1689C13.8215 21.2991 14.497 22.4361 15.1886 23.5793L13.4773 24.6145C12.7803 23.4623 12.0993 22.316 11.4349 21.1762L13.1627 20.1689ZM17.3072 27.0205C18.0039 28.1331 18.7152 29.251 19.4406 30.3736L17.7608 31.4591C17.0303 30.3287 16.314 29.2028 15.6121 28.082L17.3072 27.0205ZM21.6527 33.7457C22.3834 34.8434 23.127 35.9451 23.8832 37.0503L22.2326 38.1796C21.4717 37.0675 20.7233 35.9588 19.9878 34.854L21.6527 33.7457ZM26.1749 40.3557C26.9365 41.4402 27.7097 42.5275 28.4942 43.6174L26.871 44.7858C26.0821 43.6898 25.3043 42.5961 24.5382 41.5052L26.1749 40.3557ZM30.8556 46.8593C31.6456 47.9314 32.4461 49.0054 33.2568 50.081L31.6596 51.2848C30.8447 50.2035 30.0399 49.1237 29.2456 48.0458L30.8556 46.8593ZM35.681 53.2629C36.4971 54.3227 37.3226 55.3836 38.1574 56.4453L36.5852 57.6815C35.7463 56.6146 34.9166 55.5483 34.0964 54.4831L35.681 53.2629ZM40.6397 59.5708C41.4758 60.6131 42.3205 61.6558 43.1735 62.6986L41.6254 63.9649C40.7685 62.9172 39.9198 61.8696 39.0796 60.8222L40.6397 59.5708ZM45.7226 65.7853C46.5762 66.8093 47.4375 67.833 48.3063 68.856L46.7819 70.1506C45.9092 69.123 45.0439 68.0947 44.1864 67.066L45.7226 65.7853ZM50.9216 71.9075C51.7923 72.9142 52.6699 73.92 53.5543 74.9245L52.0532 76.2461C51.1649 75.2372 50.2834 74.227 49.4088 73.2158L50.9216 71.9075ZM56.2273 77.9339C57.1158 78.9254 58.0106 79.9154 58.9114 80.9034L57.4335 82.2509C56.5288 81.2586 55.6301 80.2644 54.7378 79.2686L56.2273 77.9339ZM61.6294 83.8589C62.538 84.8384 63.4524 85.8157 64.3723 86.7906L62.9177 88.1632C61.9939 87.1842 61.0756 86.2027 60.1631 85.219L61.6294 83.8589ZM67.1364 89.6951C68.0631 90.6606 68.995 91.6233 69.9319 92.583L68.5008 93.9801C67.56 93.0164 66.6241 92.0496 65.6935 91.08L67.1364 89.6951ZM72.7441 95.4391C73.6862 96.3879 74.633 97.3333 75.5843 98.2751L74.1772 99.6964C73.2219 98.7506 72.2711 97.8012 71.325 96.8484L72.7441 95.4391ZM78.4488 101.087C79.4072 102.02 80.3697 102.948 81.3362 103.873L79.9537 105.318C78.983 104.39 78.0164 103.457 77.0539 102.52L78.4488 101.087ZM84.2472 106.633C85.2228 107.55 86.202 108.463 87.1847 109.371L85.8278 110.84C84.8407 109.928 83.8572 109.012 82.8774 108.091L84.2472 106.633ZM90.1431 112.079C91.1348 112.978 92.1298 113.873 93.1278 114.762L91.7973 116.255C90.7948 115.362 89.7954 114.464 88.7993 113.56L90.1431 112.079ZM96.137 117.418C97.1431 118.298 98.1521 119.173 99.1636 120.041L97.8611 121.558C96.8448 120.686 95.8311 119.808 94.8203 118.924L96.137 117.418ZM102.227 122.645C103.251 123.507 104.277 124.362 105.305 125.21L104.032 126.753C102.999 125.9 101.968 125.041 100.94 124.175L102.227 122.645ZM108.414 127.75C109.457 128.593 110.502 129.429 111.548 130.257L110.307 131.825C109.255 130.993 108.205 130.153 107.157 129.305L108.414 127.75ZM114.698 132.724C115.761 133.548 116.826 134.363 117.892 135.171L116.684 136.765C115.613 135.953 114.542 135.133 113.473 134.305L114.698 132.724ZM121.093 137.567C122.174 138.366 123.256 139.157 124.339 139.939L123.168 141.56C122.079 140.774 120.991 139.979 119.903 139.174L121.093 137.567ZM127.602 142.264C128.698 143.036 129.794 143.797 130.891 144.548L129.761 146.198C128.657 145.442 127.554 144.676 126.451 143.9L127.602 142.264ZM134.221 146.797C135.332 147.537 136.443 148.266 137.554 148.983L136.468 150.663C135.35 149.941 134.231 149.207 133.112 148.462L134.221 146.797ZM140.954 151.147C142.087 151.856 143.219 152.553 144.349 153.237L143.314 154.948C142.175 154.259 141.034 153.556 139.893 152.842L140.954 151.147ZM147.808 155.293C148.966 155.969 150.121 156.63 151.275 157.278L150.296 159.022C149.132 158.369 147.967 157.701 146.8 157.021L147.808 155.293ZM154.789 159.21C155.972 159.847 157.152 160.468 158.33 161.073L157.415 162.851C156.227 162.24 155.035 161.614 153.842 160.971L154.789 159.21ZM161.905 162.866C163.114 163.457 164.32 164.03 165.521 164.585L164.682 166.401C163.467 165.839 162.248 165.26 161.027 164.662L161.905 162.866ZM169.163 166.219C170.398 166.756 171.629 167.273 172.855 167.769L172.104 169.623C170.862 169.12 169.616 168.597 168.366 168.053L169.163 166.219ZM176.569 169.218C177.83 169.69 179.085 170.139 180.333 170.565L179.687 172.458C178.42 172.025 177.147 171.569 175.868 171.091L176.569 169.218ZM184.126 171.794C185.41 172.187 186.687 172.554 187.954 172.895L187.435 174.827C186.144 174.48 184.846 174.106 183.541 173.706L184.126 171.794ZM191.827 173.859C193.13 174.156 194.422 174.423 195.704 174.661L195.34 176.627C194.03 176.385 192.711 176.112 191.382 175.808L191.827 173.859ZM199.65 175.298C200.97 175.479 202.277 175.626 203.571 175.738L203.399 177.731C202.07 177.616 200.73 177.465 199.378 177.279L199.65 175.298ZM207.546 175.971C208.201 175.99 208.853 176 209.5 176L209.5 178C208.832 178 208.161 177.99 207.487 177.97L207.546 175.971ZM210.914 175.586C211.695 176.367 211.695 177.633 210.914 178.414L198.186 191.142C197.405 191.923 196.139 191.923 195.358 191.142C194.577 190.361 194.577 189.095 195.358 188.314L206.671 177L195.358 165.686C194.577 164.905 194.577 163.639 195.358 162.858C196.139 162.077 197.405 162.077 198.186 162.858L210.914 175.586ZM4.07391 0.207632C4.32778 0.796641 4.5881 1.38919 4.85477 1.98518L1.20361 3.61891C0.929594 3.0065 0.661887 2.39713 0.400591 1.7909L4.07391 0.207632ZM6.53046 5.60129C7.09091 6.77149 7.67416 7.95341 8.27967 9.14629L4.71287 10.9568C4.09395 9.7375 3.49707 8.528 2.92286 7.32907L6.53046 5.60129ZM10.1352 12.7063C10.7477 13.852 11.3794 15.0067 12.0298 16.1697L8.53875 18.1223C7.87627 16.9378 7.23237 15.7608 6.60761 14.5921L10.1352 12.7063ZM14.0266 19.6653C14.6827 20.7907 15.3553 21.923 16.0442 23.0617L12.6217 25.1321C11.9219 23.9754 11.2382 22.8244 10.5709 21.6798L14.0266 19.6653ZM18.1547 26.4898C18.8489 27.5983 19.5576 28.7121 20.2805 29.8308L16.9209 32.0018C16.1879 30.8675 15.469 29.7376 14.7646 28.6127L18.1547 26.4898ZM22.4851 33.1916C23.2134 34.2857 23.9547 35.3838 24.7085 36.4856L21.4073 38.7443C20.644 37.6288 19.8933 36.5166 19.1554 35.4081L22.4851 33.1916ZM26.9932 39.781C27.7526 40.8622 28.5235 41.9464 29.3058 43.0332L26.0594 45.37C25.2682 44.2709 24.4882 43.174 23.7199 42.0799L26.9932 39.781ZM31.6607 46.2661C32.4485 47.3352 33.2468 48.4063 34.0554 49.4791L30.861 51.8866C30.0439 50.8025 29.237 49.7199 28.4405 48.639L31.6607 46.2661ZM36.4733 52.6528C37.2873 53.7099 38.1108 54.7681 38.9435 55.8272L35.7991 58.2996C34.9581 57.23 34.1263 56.1611 33.304 55.0933L36.4733 52.6528ZM41.4198 58.9451C42.2539 59.9849 43.0966 61.0251 43.9475 62.0654L40.8514 64.598C39.9924 63.5479 39.1417 62.4978 38.2996 61.4479L41.4198 58.9451ZM46.4907 65.145C47.3423 66.1666 48.2017 67.188 49.0686 68.2087L46.0197 70.7979C45.145 69.768 44.2778 68.7373 43.4183 67.7063L46.4907 65.145ZM51.6779 71.2533C52.5467 72.2578 53.4224 73.2614 54.3049 74.2637L51.3026 76.9069C50.4124 75.8958 49.529 74.8834 48.6525 73.8699L51.6779 71.2533ZM56.9721 77.2666C57.8586 78.2559 58.7514 79.2437 59.6504 80.2296L56.6945 82.9246C55.7879 81.9302 54.8873 80.9339 53.9931 79.936L56.9721 77.2666ZM62.3626 83.1788C63.2692 84.1562 64.1817 85.1315 65.0996 86.1043L62.1903 88.8495C61.2646 87.8684 60.3444 86.8849 59.43 85.8991L62.3626 83.1788ZM67.8579 89.0026C68.7826 89.9661 69.7125 90.9268 70.6475 91.8844L67.7853 94.6787C66.8425 93.7129 65.9046 92.7441 64.972 91.7724L67.8579 89.0026ZM73.4537 94.7345C74.3938 95.6813 75.3386 96.6247 76.2879 97.5644L73.4736 100.407C72.5163 99.4592 71.5635 98.5078 70.6154 97.553L73.4537 94.7345ZM79.1463 100.37C80.1025 101.301 81.063 102.228 82.0274 103.15L79.2625 106.041C78.2897 105.11 77.321 104.175 76.3565 103.237L79.1463 100.37ZM84.9322 105.905C85.9056 106.82 86.8827 107.73 87.8632 108.636L85.1493 111.574C84.16 110.661 83.1744 109.742 82.1925 108.819L84.9322 105.905ZM90.8151 111.338C91.8046 112.236 92.7973 113.128 93.793 114.016L91.1321 117.002C90.1274 116.107 89.1257 115.206 88.1273 114.301L90.8151 111.338ZM96.7953 116.666C97.7992 117.544 98.8058 118.416 99.8149 119.282L97.2098 122.317C96.1912 121.443 95.1751 120.563 94.162 119.677L96.7953 116.666ZM102.871 121.88C103.893 122.74 104.916 123.593 105.942 124.439L103.396 127.524C102.36 126.669 101.327 125.808 100.296 124.94L102.871 121.88ZM109.043 126.972C110.083 127.813 111.125 128.647 112.169 129.473L109.686 132.609C108.631 131.775 107.579 130.932 106.528 130.083L109.043 126.972ZM115.31 131.933C116.371 132.755 117.433 133.568 118.496 134.373L116.081 137.562C115.006 136.748 113.932 135.926 112.86 135.095L115.31 131.933ZM121.687 136.763C122.766 137.56 123.844 138.349 124.924 139.128L122.583 142.371C121.491 141.583 120.399 140.785 119.309 139.978L121.687 136.763ZM128.177 141.446C129.27 142.215 130.363 142.974 131.456 143.723L129.196 147.023C128.089 146.265 126.982 145.496 125.875 144.718L128.177 141.446ZM134.775 145.965C135.883 146.702 136.99 147.428 138.096 148.144L135.925 151.503C134.803 150.778 133.681 150.041 132.558 149.294L134.775 145.965ZM141.485 150.299C142.614 151.006 143.741 151.7 144.867 152.381L142.796 155.804C141.653 155.111 140.508 154.407 139.363 153.69L141.485 150.299ZM148.313 154.43C149.465 155.102 150.616 155.761 151.764 156.406L149.806 159.894C148.638 159.238 147.468 158.568 146.296 157.884L148.313 154.43ZM155.263 158.329C156.441 158.963 157.615 159.581 158.787 160.183L156.958 163.741C155.764 163.127 154.567 162.497 153.368 161.852L155.263 158.329ZM162.344 161.967C163.547 162.555 164.746 163.125 165.941 163.678L164.262 167.309C163.041 166.744 161.816 166.161 160.588 165.561L162.344 161.967ZM169.561 165.302C170.79 165.835 172.013 166.349 173.23 166.843L171.728 170.55C170.479 170.044 169.225 169.517 167.967 168.97L169.561 165.302ZM176.92 168.281C178.172 168.75 179.418 169.196 180.656 169.619L179.364 173.404C178.088 172.968 176.805 172.509 175.518 172.027L176.92 168.281ZM184.419 170.838C185.693 171.228 186.958 171.592 188.214 171.929L187.175 175.792C185.873 175.442 184.564 175.065 183.248 174.662L184.419 170.838ZM192.05 172.884C193.339 173.178 194.618 173.443 195.885 173.677L195.158 177.61C193.834 177.366 192.501 177.09 191.16 176.783L192.05 172.884ZM199.787 174.307C201.09 174.487 202.38 174.632 203.657 174.742L203.313 178.727C201.967 178.611 200.61 178.458 199.242 178.27L199.787 174.307ZM207.576 174.971C208.221 174.99 208.863 175 209.5 175L209.5 179C208.822 179 208.141 178.99 207.457 178.969L207.576 174.971Z" fill="#282828"/>
</svg>
