<svg width="264" height="144" viewBox="0 0 264 144" fill="none" xmlns="http://www.w3.org/2000/svg">
<path d="M1.63105 133.461C1.15582 133.179 0.998669 132.566 1.28002 132.091L5.86521 124.346C6.14656 123.871 6.75992 123.714 7.23515 123.995C7.71038 124.276 7.86756 124.89 7.58618 125.365L3.51049 132.249L10.3944 136.325C10.8696 136.606 11.0268 137.219 10.7454 137.695C10.4641 138.17 9.85071 138.327 9.37548 138.046L1.63105 133.461ZM263.457 3.49945C262.776 3.46991 262.098 3.44436 261.422 3.42276L261.486 1.42378C262.169 1.44563 262.855 1.47146 263.544 1.50133L263.457 3.49945ZM257.401 3.34023C256.071 3.32829 254.752 3.33182 253.444 3.35049L253.415 1.3507C254.739 1.33181 256.074 1.32824 257.419 1.34031L257.401 3.34023ZM249.409 3.45689C248.069 3.50859 246.74 3.57631 245.422 3.65968L245.296 1.66366C246.63 1.57926 247.976 1.51071 249.332 1.45838L249.409 3.45689ZM241.446 3.96095C240.103 4.07973 238.771 4.2149 237.449 4.36603L237.222 2.37898C238.56 2.2259 239.91 2.08901 241.27 1.96873L241.446 3.96095ZM233.516 4.86693C232.179 5.05485 230.852 5.25923 229.536 5.47964L229.205 3.50711C230.539 3.2838 231.883 3.07674 233.238 2.88637L233.516 4.86693ZM225.614 6.18959C224.297 6.44575 222.992 6.71802 221.696 7.00592L221.262 5.05356C222.575 4.76185 223.898 4.48598 225.231 4.22642L225.614 6.18959ZM217.803 7.92544C216.508 8.24947 215.223 8.58915 213.948 8.94399L213.412 7.0172C214.703 6.6577 216.005 6.31355 217.318 5.98524L217.803 7.92544ZM210.1 10.0692C208.826 10.4598 207.562 10.8655 206.308 11.2858L205.672 9.38938C206.943 8.9637 208.224 8.55277 209.514 8.1571L210.1 10.0692ZM202.52 12.6087C201.266 13.0643 200.022 13.5344 198.786 14.0185L198.056 12.1563C199.307 11.6663 200.567 11.1904 201.836 10.729L202.52 12.6087ZM195.074 15.525C193.843 16.0419 192.62 16.5725 191.406 17.1163L190.588 15.2909C191.817 14.7408 193.054 14.204 194.299 13.681L195.074 15.525ZM187.772 18.7933C186.565 19.3665 185.367 19.9526 184.175 20.5509L183.278 18.7635C184.482 18.1589 185.693 17.5665 186.913 16.9869L187.772 18.7933ZM180.617 22.3844C179.436 23.0085 178.262 23.6443 177.095 24.2914L176.125 22.5421C177.304 21.8887 178.49 21.2466 179.683 20.6161L180.617 22.3844ZM173.61 26.2659C172.455 26.9351 171.305 27.6149 170.161 28.3048L169.128 26.5922C170.282 25.8963 171.442 25.2104 172.608 24.5351L173.61 26.2659ZM166.745 30.4041C165.614 31.1125 164.487 31.8304 163.366 32.5573L162.278 30.8789C163.408 30.1465 164.543 29.423 165.684 28.7089L166.745 30.4041ZM160.014 34.7643C158.904 35.5064 157.799 36.2569 156.697 37.0151L155.563 35.3677C156.672 34.6045 157.785 33.8491 158.902 33.1018L160.014 34.7643ZM153.404 39.3122C152.313 40.0829 151.225 40.8609 150.141 41.6456L148.969 40.0251C150.059 39.2363 151.153 38.454 152.25 37.6787L153.404 39.3122ZM146.899 44.0162C145.824 44.8106 144.751 45.6112 143.68 46.4172L142.477 44.8194C143.552 44.0099 144.63 43.2058 145.71 42.4076L146.899 44.0162ZM140.481 48.8459C139.418 49.6592 138.357 50.4775 137.297 51.3002L136.071 49.7203C137.134 48.895 138.199 48.0739 139.266 47.2575L140.481 48.8459ZM134.131 53.7724C133.077 54.6 132.024 55.4315 130.972 56.2663L129.729 54.6993C130.784 53.8627 131.839 53.0293 132.896 52.1995L134.131 53.7724ZM127.829 58.7682C126.782 59.6051 125.735 60.4448 124.687 61.2867L123.434 59.7276C124.483 58.8848 125.532 58.044 126.581 57.2058L127.829 58.7682ZM121.556 63.8072C120.513 64.6486 119.468 65.4917 118.423 66.3361L117.166 64.78C118.212 63.9356 119.257 63.0922 120.301 62.2502L121.556 63.8072ZM115.292 68.864C114.248 69.7059 113.204 70.5484 112.157 71.391L110.903 69.8331C111.949 68.9912 112.993 68.1492 114.036 67.3076L115.292 68.864ZM109.016 73.9143C107.97 74.7526 106.922 75.5905 105.871 76.4275L104.625 74.863C105.674 74.0275 106.721 73.1909 107.765 72.3537L109.016 73.9143ZM102.711 78.9341C101.659 79.7649 100.604 80.5942 99.5458 81.4217L98.3139 79.8461C99.3695 79.0208 100.422 78.1935 101.471 77.3646L102.711 78.9341ZM96.36 83.898C95.2987 84.7179 94.2335 85.5354 93.1642 86.35L91.9522 84.7591C93.0177 83.9473 94.0793 83.1326 95.1373 82.3152L96.36 83.898ZM89.9459 88.7829C88.8717 89.5884 87.793 90.3906 86.7094 91.189L85.5231 89.5788C86.6019 88.784 87.6761 87.9852 88.746 87.1829L89.9459 88.7829ZM83.4512 93.5666C82.3615 94.3539 81.2666 95.137 80.1661 95.9153L79.0113 94.2823C80.1061 93.5081 81.1955 92.729 82.2799 91.9455L83.4512 93.5666ZM76.8618 98.2254C75.7546 98.9904 74.6414 99.7503 73.522 100.504L72.4045 98.8457C73.5172 98.0961 74.6239 97.3407 75.725 96.58L76.8618 98.2254ZM70.1654 102.736C69.0405 103.473 67.9091 104.205 66.7708 104.93L65.6965 103.243C66.8271 102.523 67.9511 101.796 69.0687 101.063L70.1654 102.736ZM63.3512 107.074C62.2078 107.78 61.0572 108.479 59.8991 109.171L58.8736 107.454C60.0231 106.767 61.1653 106.073 62.3006 105.372L63.3512 107.074ZM56.4108 111.218C55.2485 111.888 54.0785 112.551 52.9004 113.205L51.9292 111.457C53.0978 110.808 54.2585 110.15 55.4118 109.485L56.4108 111.218ZM49.3417 115.143C48.1595 115.775 46.9691 116.397 45.7702 117.011L44.8586 115.231C46.0472 114.622 47.2275 114.005 48.3998 113.379L49.3417 115.143ZM42.1519 118.824C40.9455 119.415 39.7304 119.997 38.5063 120.569L37.6591 118.758C38.8721 118.191 40.0763 117.614 41.2719 117.028L42.1519 118.824ZM34.8326 122.246C33.6005 122.795 32.3591 123.333 31.1082 123.862L30.3297 122.02C31.5687 121.496 32.7985 120.962 34.0192 120.419L34.8326 122.246ZM27.386 125.393C26.1359 125.893 24.8762 126.383 23.6068 126.863L22.9003 124.992C24.1574 124.517 25.4049 124.032 26.643 123.536L27.386 125.393ZM19.815 128.252C18.5516 128.701 17.2784 129.139 15.9953 129.566L15.3636 127.668C16.634 127.245 17.8946 126.811 19.1456 126.367L19.815 128.252ZM12.1232 130.812C10.8502 131.207 9.56746 131.592 8.27473 131.965L7.71971 130.044C8.9996 129.674 10.2696 129.293 11.5299 128.902L12.1232 130.812ZM4.36617 133.051C3.70961 133.227 3.05048 133.399 2.38874 133.569L1.8923 131.631C2.54746 131.463 3.20004 131.293 3.85008 131.119L4.36617 133.051ZM1.12159 134.321C0.171122 133.758 -0.143208 132.532 0.419545 131.581L9.58987 116.092C10.1526 115.142 11.3793 114.827 12.3298 115.39C13.2803 115.953 13.5946 117.18 13.0318 118.13L4.88043 131.898L18.6483 140.049C19.5988 140.612 19.9131 141.839 19.3504 142.789C18.7876 143.74 17.5609 144.054 16.6104 143.491L1.12159 134.321ZM263.414 4.49851C262.736 4.46914 262.062 4.44373 261.39 4.42225L261.518 0.424295C262.205 0.44626 262.895 0.472238 263.587 0.502271L263.414 4.49851ZM257.392 4.34019C256.07 4.32832 254.759 4.33183 253.458 4.35039L253.401 0.3508C254.733 0.331797 256.075 0.328205 257.428 0.340348L257.392 4.34019ZM249.447 4.45615C248.116 4.50753 246.795 4.57483 245.485 4.65768L245.232 0.665655C246.575 0.580732 247.929 0.511767 249.293 0.459124L249.447 4.45615ZM241.534 4.95707C240.199 5.07509 238.876 5.20939 237.563 5.35955L237.108 1.38546C238.455 1.2314 239.813 1.09365 241.182 0.972614L241.534 4.95707ZM233.656 5.85721C232.326 6.0439 231.008 6.24695 229.701 6.46591L229.04 2.52085C230.382 2.29609 231.735 2.08769 233.099 1.8961L233.656 5.85721ZM225.805 7.17117C224.497 7.42564 223.2 7.69611 221.913 7.9821L221.045 4.07738C222.367 3.78376 223.698 3.50609 225.04 3.24484L225.805 7.17117ZM218.046 8.89554C216.759 9.21743 215.483 9.55487 214.216 9.90739L213.143 6.05381C214.444 5.69198 215.754 5.34559 217.075 5.01514L218.046 8.89554ZM210.393 11.0253C209.128 11.4133 207.872 11.8164 206.625 12.234L205.355 8.44117C206.634 8.0128 207.922 7.59926 209.221 7.20105L210.393 11.0253ZM202.861 13.5485C201.616 14.0013 200.379 14.4685 199.151 14.9496L197.692 11.2252C198.95 10.7322 200.218 10.2534 201.495 9.78918L202.861 13.5485ZM195.461 16.447C194.237 16.9608 193.022 17.4883 191.814 18.029L190.18 14.3782C191.415 13.825 192.659 13.2851 193.912 12.7589L195.461 16.447ZM188.201 19.6965C187.001 20.2666 185.809 20.8494 184.624 21.4445L182.829 17.8699C184.039 17.262 185.258 16.6664 186.484 16.0837L188.201 19.6965ZM181.085 23.2685C179.91 23.8894 178.742 24.5221 177.58 25.1661L175.641 21.6674C176.825 21.0109 178.017 20.3656 179.216 19.732L181.085 23.2685ZM174.111 27.1313C172.961 27.7974 171.817 28.4742 170.677 29.1612L168.612 25.7358C169.771 25.037 170.936 24.3481 172.107 23.6697L174.111 27.1313ZM167.276 31.2517C166.149 31.9573 165.027 32.6724 163.909 33.3965L161.734 30.0396C162.869 29.3046 164.008 28.5783 165.153 27.8613L167.276 31.2517ZM160.57 35.5955C159.464 36.3351 158.362 37.083 157.264 37.8389L154.996 34.5439C156.108 33.7784 157.225 33.0204 158.346 32.2706L160.57 35.5955ZM153.981 40.1289C152.893 40.8974 151.809 41.6732 150.727 42.4558L148.382 39.2149C149.476 38.424 150.572 37.6396 151.673 36.862L153.981 40.1289ZM147.493 44.8204C146.42 45.613 145.35 46.4118 144.282 47.2162L141.876 44.0205C142.953 43.2093 144.033 42.4034 145.116 41.6033L147.493 44.8204ZM141.089 49.64C140.028 50.4519 138.968 51.2688 137.91 52.0902L135.457 48.9303C136.522 48.1037 137.589 47.2812 138.658 46.4634L141.089 49.64ZM134.749 54.5588C133.696 55.3854 132.644 56.2159 131.593 57.0498L129.107 53.9157C130.163 53.0783 131.22 52.2439 132.278 51.413L134.749 54.5588ZM128.454 59.5494C127.407 60.3857 126.361 61.2248 125.313 62.0662L122.808 58.9481C123.857 58.1048 124.907 57.2635 125.957 56.4246L128.454 59.5494ZM122.184 64.5856C121.141 65.4269 120.096 66.2698 119.051 67.1141L116.538 64.002C117.584 63.1576 118.629 62.3139 119.673 61.4718L122.184 64.5856ZM115.92 69.6422C114.876 70.4842 113.831 71.327 112.784 72.17L110.276 69.0542C111.321 68.2126 112.365 67.3709 113.407 66.5295L115.92 69.6422ZM109.642 74.6946C108.595 75.5334 107.546 76.372 106.494 77.2098L104.002 74.0808C105.05 73.246 106.096 72.41 107.14 71.5733L109.642 74.6946ZM103.331 79.7189C102.278 80.5505 101.222 81.3809 100.162 82.2095L97.698 79.0583C98.7521 78.2341 99.8031 77.4079 100.851 76.5799L103.331 79.7189ZM96.9713 84.6894C95.9083 85.5105 94.8414 86.3294 93.7702 87.1455L91.3462 83.9636C92.4098 83.1533 93.4696 82.3399 94.526 81.5239L96.9713 84.6894ZM90.5458 89.583C89.4695 90.3901 88.3885 91.194 87.3025 91.9941L84.9299 88.7738C86.0063 87.9807 87.0783 87.1835 88.146 86.3828L90.5458 89.583ZM84.0368 94.3772C82.9446 95.1664 81.8469 95.9514 80.7435 96.7317L78.4339 93.4659C79.5258 92.6937 80.6124 91.9166 81.6942 91.1349L84.0368 94.3772ZM77.4303 99.0481C76.3199 99.8153 75.2035 100.577 74.0807 101.334L71.8458 98.0164C72.9551 97.269 74.0586 96.5158 75.1565 95.7572L77.4303 99.0481ZM70.7137 103.572C69.5853 104.312 68.4501 105.046 67.308 105.773L65.1593 102.399C66.2861 101.682 67.4063 100.957 68.5204 100.227L70.7137 103.572ZM63.8765 107.925C62.7291 108.633 61.5743 109.335 60.4119 110.029L58.3609 106.595C59.506 105.911 60.6441 105.22 61.7753 104.521L63.8765 107.925ZM56.9103 112.084C55.7434 112.757 54.5688 113.422 53.386 114.079L51.4437 110.583C52.6074 109.936 53.7636 109.281 54.9123 108.619L56.9103 112.084ZM49.8127 116.026C48.6255 116.659 47.4301 117.285 46.226 117.901L44.4028 114.341C45.5863 113.735 46.7615 113.12 47.9288 112.497L49.8127 116.026ZM42.5918 119.722C41.3801 120.316 40.1596 120.9 38.9299 121.475L37.2355 117.852C38.4429 117.287 39.6416 116.713 40.832 116.13L42.5918 119.722ZM35.2393 123.16C34.0014 123.711 32.7542 124.252 31.4974 124.783L29.9404 121.099C31.1735 120.578 32.3975 120.046 33.6125 119.505L35.2393 123.16ZM27.7575 126.322C26.5013 126.824 25.2356 127.317 23.96 127.798L22.5471 124.056C23.798 123.584 25.0394 123.101 26.2715 122.608L27.7575 126.322ZM20.1497 129.194C18.88 129.645 17.6006 130.085 16.3112 130.515L15.0477 126.719C16.3118 126.299 17.5661 125.867 18.811 125.425L20.1497 129.194ZM12.4198 131.767C11.1405 132.164 9.85142 132.55 8.55224 132.926L7.44223 129.083C8.71566 128.715 9.97923 128.336 11.2332 127.947L12.4198 131.767ZM4.62422 134.017C3.96438 134.194 3.30197 134.367 2.63695 134.537L1.64408 130.663C2.29597 130.496 2.94527 130.326 3.59204 130.153L4.62422 134.017Z" fill="#282828"/>
</svg>
