<svg width="393" height="377" viewBox="0 0 393 377" fill="none" xmlns="http://www.w3.org/2000/svg">
<path d="M332.014 135.72C333.799 118.031 338.067 101.285 330.521 84.2744C316.672 53.0588 274.896 36.4858 242.434 51.2718C225.834 58.8118 211.638 69.8428 193.356 73.8918C144.011 84.8172 67.8477 26.6084 40.99 94.378C31.7703 117.631 35.488 148.274 52.1591 167.712C57.5118 173.948 64.0513 179.376 68.0127 186.509C78.8517 206.03 63.5089 227.482 56.5921 245.691C40.1647 288.721 102.102 312.533 135.719 316.921C191.289 324.22 237.128 263.146 292.392 288.028C330.906 305.37 364.704 263.146 357.63 220.922C353.001 193.28 329.562 166.822 331.755 138.653C331.834 137.68 331.92 136.708 332.014 135.72Z" fill="#AEAEAE"/>
<path opacity="0.7" d="M332.014 135.72C333.799 118.031 338.067 101.285 330.521 84.2744C316.672 53.0588 274.896 36.4858 242.434 51.2718C225.834 58.8118 211.638 69.8428 193.356 73.8918C144.011 84.8172 67.8477 26.6084 40.99 94.378C31.7703 117.631 35.488 148.274 52.1591 167.712C57.5118 173.948 64.0513 179.376 68.0127 186.509C78.8517 206.03 63.5089 227.482 56.5921 245.691C40.1647 288.721 102.102 312.533 135.719 316.921C191.289 324.22 237.128 263.146 292.392 288.028C330.906 305.37 364.704 263.146 357.63 220.922C353.001 193.28 329.562 166.822 331.755 138.653C331.834 137.68 331.92 136.708 332.014 135.72Z" fill="black"/>
<path d="M67.4155 147.226C82.4048 147.226 94.5561 135.569 94.5561 121.19C94.5561 106.811 82.4048 95.1548 67.4155 95.1548C52.4262 95.1548 40.2749 106.811 40.2749 121.19C40.2749 135.569 52.4262 147.226 67.4155 147.226Z" fill="white" stroke="#2E353A" stroke-linecap="round" stroke-linejoin="round"/>
<path d="M65.3955 144.64C80.3848 144.64 92.536 132.984 92.536 118.604C92.536 104.225 80.3848 92.5688 65.3955 92.5688C50.4061 92.5688 38.2549 104.225 38.2549 118.604C38.2549 132.984 50.4061 144.64 65.3955 144.64Z" fill="white" stroke="#2E353A" stroke-linecap="round" stroke-linejoin="round"/>
<path d="M65.3953 142.054C78.8957 142.054 89.8399 131.555 89.8399 118.604C89.8399 105.653 78.8957 95.1548 65.3953 95.1548C51.8949 95.1548 40.9507 105.653 40.9507 118.604C40.9507 131.555 51.8949 142.054 65.3953 142.054Z" fill="#2E353A" stroke="#2E353A" stroke-linecap="round" stroke-linejoin="round"/>
<path d="M62.5265 100.976C62.5265 100.976 59.8305 94.5066 55.1145 89.9826C50.3985 85.4586 31.1729 82.5406 31.1729 82.5406C34.2774 85.4131 37.1005 88.5528 39.6067 91.9204C43.9847 97.7412 58.4707 111.004 58.4707 111.004C58.4707 111.004 51.3967 105.183 44.983 104.535C38.5692 103.886 22.3933 107.121 21.403 107.121C20.4126 107.121 27.4709 109.707 32.5327 111.969C37.5946 114.231 57.1424 116.177 57.1424 116.177C57.1424 116.177 48.7165 118.439 42.9944 120.384C37.2723 122.329 31.8489 136.55 31.8489 136.55C31.8489 136.55 39.2687 130.08 45.6746 128.467C52.0805 126.853 61.1824 123.943 61.1824 123.943C61.1824 123.943 55.4525 130.088 54.1084 134.295C52.7644 138.502 53.7704 148.199 53.7704 148.199C53.7704 148.199 56.8044 139.151 60.5143 135.584C64.2242 132.018 68.2564 125.918 68.2564 125.918C70.1239 128.838 71.814 131.859 73.3183 134.966C76.0142 140.463 77.6963 148.538 77.6963 148.538C77.6963 148.538 82.0822 139.49 81.7442 134.966C81.4062 130.442 76.3522 122.352 76.3522 122.352C76.3522 122.352 79.7242 120.09 84.7781 122.028C89.8321 123.965 98.6039 132.056 98.6039 132.056C98.6039 132.056 96.576 121.379 93.2041 117.179C89.8321 112.98 75.3383 111.675 75.3383 111.675C75.3383 111.675 83.4341 107.151 88.4881 106.178C93.542 105.206 100.278 107.475 100.278 107.475C100.278 107.475 92.5281 97.1229 86.4602 96.4745C80.3923 95.8261 71.2904 104.859 71.2904 104.859L73.9942 91.9204C74.6623 88.6857 73.3183 80.6104 73.3183 80.6104C73.3183 80.6104 69.6083 82.5481 65.2225 88.6932C63.9389 90.4632 63.0389 92.4624 62.5758 94.5722C62.1127 96.6821 62.0959 98.8597 62.5265 100.976Z" fill="#AEAEAE"/>
<path opacity="0.5" d="M62.5265 100.976C62.5265 100.976 59.8305 94.5066 55.1145 89.9826C50.3985 85.4586 31.1729 82.5406 31.1729 82.5406C34.2774 85.4131 37.1005 88.5528 39.6067 91.9204C43.9847 97.7412 58.4707 111.004 58.4707 111.004C58.4707 111.004 51.3967 105.183 44.983 104.535C38.5692 103.886 22.3933 107.121 21.403 107.121C20.4126 107.121 27.4709 109.707 32.5327 111.969C37.5946 114.231 57.1424 116.177 57.1424 116.177C57.1424 116.177 48.7165 118.439 42.9944 120.384C37.2723 122.329 31.8489 136.55 31.8489 136.55C31.8489 136.55 39.2687 130.08 45.6746 128.467C52.0805 126.853 61.1824 123.943 61.1824 123.943C61.1824 123.943 55.4525 130.088 54.1084 134.295C52.7644 138.502 53.7704 148.199 53.7704 148.199C53.7704 148.199 56.8044 139.151 60.5143 135.584C64.2242 132.018 68.2564 125.918 68.2564 125.918C70.1239 128.838 71.814 131.859 73.3183 134.966C76.0142 140.463 77.6963 148.538 77.6963 148.538C77.6963 148.538 82.0822 139.49 81.7442 134.966C81.4062 130.442 76.3522 122.352 76.3522 122.352C76.3522 122.352 79.7242 120.09 84.7781 122.028C89.8321 123.965 98.6039 132.056 98.6039 132.056C98.6039 132.056 96.576 121.379 93.2041 117.179C89.8321 112.98 75.3383 111.675 75.3383 111.675C75.3383 111.675 83.4341 107.151 88.4881 106.178C93.542 105.206 100.278 107.475 100.278 107.475C100.278 107.475 92.5281 97.1229 86.4602 96.4745C80.3923 95.8261 71.2904 104.859 71.2904 104.859L73.9942 91.9204C74.6623 88.6857 73.3183 80.6104 73.3183 80.6104C73.3183 80.6104 69.6083 82.5481 65.2225 88.6932C63.9389 90.4632 63.0389 92.4624 62.5758 94.5722C62.1127 96.6821 62.0959 98.8597 62.5265 100.976Z" fill="black"/>
<path d="M69.168 91.1285C69.4038 90.2011 69.6631 89.2737 69.954 88.3613" stroke="#2E353A" stroke-width="0.5" stroke-linecap="round" stroke-linejoin="round"/>
<path d="M46.6494 91.1284C49.7934 93.3376 53.7234 96.4064 55.7827 99.0379C59.4927 103.886 66.9125 114.239 66.9125 114.239C66.7 107.285 67.2745 100.33 68.626 93.496" stroke="#2E353A" stroke-width="0.5" stroke-linecap="round" stroke-linejoin="round"/>
<path d="M41.9648 88.0371C41.9648 88.0371 42.9473 88.6403 44.4172 89.613" stroke="#2E353A" stroke-width="0.5" stroke-linecap="round" stroke-linejoin="round"/>
<path d="M66.9126 114.239C66.9126 114.239 79.7244 101.948 85.1164 100.976C90.5083 100.003 95.2322 103.886 95.2322 103.886" stroke="#2E353A" stroke-width="0.5" stroke-linecap="round" stroke-linejoin="round"/>
<path d="M44.0162 124.516C40.8722 126.416 40.6128 127.532 40.6128 127.532" stroke="#2E353A" stroke-width="0.5" stroke-linecap="round" stroke-linejoin="round"/>
<path d="M94.8938 125.556C94.8938 125.556 92.8738 120.7 85.792 118.438C78.7101 116.176 67.5961 115.852 67.5961 115.852C67.5961 115.852 51.994 120.753 46.2876 123.309" stroke="#2E353A" stroke-width="0.5" stroke-linecap="round" stroke-linejoin="round"/>
<path d="M60.7739 114.005C64.5467 115.06 67.5885 115.852 67.5885 115.852" stroke="#2E353A" stroke-width="0.5" stroke-linecap="round" stroke-linejoin="round"/>
<path d="M37.0288 108.259C40.6916 108.47 45.4076 108.953 48.0328 110.031C50.1707 110.913 54.3837 112.188 58.3608 113.326" stroke="#2E353A" stroke-width="0.5" stroke-linecap="round" stroke-linejoin="round"/>
<path d="M31.8491 108.094C31.8491 108.094 33.0831 108.094 34.8988 108.162" stroke="#2E353A" stroke-width="0.5" stroke-linecap="round" stroke-linejoin="round"/>
<path d="M66.9124 117.79C66.9124 117.79 57.4804 131.362 56.7966 134.612C56.3915 136.529 56.1653 138.477 56.1206 140.433" stroke="#2E353A" stroke-width="0.5" stroke-linecap="round" stroke-linejoin="round"/>
<path d="M71.1094 122.065C72.925 124.327 75.1023 127.343 76.014 129.756C77.0753 132.7 77.8644 135.728 78.372 138.804" stroke="#2E353A" stroke-width="0.5" stroke-linecap="round" stroke-linejoin="round"/>
<path d="M68.2563 118.763C68.2563 118.763 69.0423 119.562 70.0563 120.791" stroke="#2E353A" stroke-width="0.5" stroke-linecap="round" stroke-linejoin="round"/>
<path d="M58.2427 103.766C58.2427 103.766 56.5057 96.9796 57.5825 90.6837C58.6593 84.3878 72.5165 71.2456 72.5165 71.2456C71.7463 75.3156 71.3649 79.4445 71.3768 83.581C71.3768 90.7591 67.6433 109.639 67.6433 109.639C67.6433 109.639 69.852 100.953 74.6623 96.8213C79.4726 92.6894 94.5874 86.2653 95.4048 85.7149C96.2223 85.1644 92.0486 91.2115 89.3212 95.8863C86.5938 100.561 71.872 113.1 71.872 113.1C71.872 113.1 80.0935 110.22 85.9257 108.576C91.7578 106.932 104.79 115.483 104.79 115.483C104.79 115.483 94.831 114.382 88.6452 116.651C82.4594 118.921 73.2946 121.651 73.2946 121.651C73.2946 121.651 81.6891 123.437 85.3362 126.099C88.9832 128.761 94.0765 137.228 94.0765 137.228C94.0765 137.228 86.1064 131.566 80.9267 130.751C75.747 129.937 68.728 127.215 68.728 127.215C68.9942 130.631 69.4613 134.029 70.1271 137.394C71.2825 143.373 74.8431 150.883 74.8431 150.883C74.8431 150.883 65.7805 145.982 63.2967 142.114C60.813 138.246 60.0112 128.851 60.0112 128.851C60.0112 128.851 55.8926 128.896 52.9372 133.3C49.9819 137.703 47.8047 149.179 47.8047 149.179C47.8047 149.179 42.9629 139.377 43.1437 134.099C43.3245 128.821 54.3127 119.637 54.3127 119.637C54.3127 119.637 44.9908 120.489 40.2905 122.525C35.5902 124.561 31.4873 130.178 31.4873 130.178C31.4873 130.178 31.4873 117.436 36.0304 113.515C40.5735 109.594 53.4717 111.856 53.4717 111.856L43.4109 102.861C40.8957 100.599 37.0758 93.285 37.0758 93.285C37.0758 93.285 41.273 92.7874 48.5671 95.3284C50.6872 96.0405 52.6364 97.1544 54.2986 98.6038C55.9609 100.053 57.3022 101.809 58.2427 103.766Z" fill="#AEAEAE"/>
<path d="M46.8616 99.4827C46.0756 98.8569 45.3368 98.2536 44.5508 97.6655" stroke="#2E353A" stroke-width="0.5" stroke-linecap="round" stroke-linejoin="round"/>
<path d="M65.152 86.8838C63.9337 90.4427 62.5739 95.125 62.5424 98.4124C62.4796 104.444 62.7468 116.983 62.7468 116.983C58.6898 111.218 53.9907 105.894 48.7324 101.104" stroke="#2E353A" stroke-width="0.5" stroke-linecap="round" stroke-linejoin="round"/>
<path d="M67.0854 81.749C67.0854 81.749 66.6452 82.7895 66.0479 84.3956" stroke="#2E353A" stroke-width="0.5" stroke-linecap="round" stroke-linejoin="round"/>
<path d="M62.7464 116.983C62.7464 116.983 44.8649 114.171 39.8973 116.402C34.9298 118.634 33.4521 124.41 33.4521 124.41" stroke="#2E353A" stroke-width="0.5" stroke-linecap="round" stroke-linejoin="round"/>
<path d="M87.6001 112.519C91.2864 112.323 92.1668 113.04 92.1668 113.04" stroke="#2E353A" stroke-width="0.5" stroke-linecap="round" stroke-linejoin="round"/>
<path d="M46.9006 141.835C46.9006 141.835 45.5959 136.761 49.966 130.962C54.3362 125.164 63.1866 118.68 63.1866 118.68C63.1866 118.68 78.8358 113.922 85.0216 112.813" stroke="#2E353A" stroke-width="0.5" stroke-linecap="round" stroke-linejoin="round"/>
<path d="M67.5964 113.364C65.1755 116.327 63.1948 118.68 63.1948 118.68" stroke="#2E353A" stroke-width="0.5" stroke-linecap="round" stroke-linejoin="round"/>
<path d="M83.3869 95.4111C80.5416 97.6731 77.0046 100.689 75.5269 103.004C74.3243 104.919 71.6755 108.282 69.1367 111.456" stroke="#2E353A" stroke-width="0.5" stroke-linecap="round" stroke-linejoin="round"/>
<path d="M87.4898 92.3726C87.4898 92.3726 86.4916 93.0662 85.0532 94.1369" stroke="#2E353A" stroke-width="0.5" stroke-linecap="round" stroke-linejoin="round"/>
<path d="M64.9082 119.886C64.9082 119.886 80.8404 125.632 83.3478 127.886C84.8429 129.216 86.2108 130.672 87.435 132.237" stroke="#2E353A" stroke-width="0.5" stroke-linecap="round" stroke-linejoin="round"/>
<path d="M64.0986 125.692C63.9886 128.542 64.0436 132.199 64.7903 134.687C65.7169 137.676 66.919 140.581 68.3823 143.366" stroke="#2E353A" stroke-width="0.5" stroke-linecap="round" stroke-linejoin="round"/>
<path d="M64.4051 121.394C64.4051 121.394 64.2794 122.465 64.1851 124.048" stroke="#2E353A" stroke-width="0.5" stroke-linecap="round" stroke-linejoin="round"/>
<path d="M110.692 138.306H288.855C291.079 138.306 293.212 139.154 294.785 140.663C296.358 142.171 297.242 144.218 297.242 146.351V257.189C297.242 258.345 297.004 259.489 296.543 260.557C296.082 261.624 295.407 262.594 294.555 263.411C293.703 264.228 292.692 264.877 291.579 265.319C290.466 265.761 289.273 265.989 288.069 265.989H111.478C110.274 265.989 109.081 265.761 107.968 265.319C106.855 264.877 105.844 264.228 104.992 263.411C104.141 262.594 103.465 261.624 103.004 260.557C102.543 259.489 102.306 258.345 102.306 257.189V146.351C102.306 144.218 103.189 142.171 104.762 140.663C106.335 139.154 108.468 138.306 110.692 138.306Z" fill="white" stroke="#2E353A" stroke-linecap="round" stroke-linejoin="round"/>
<path d="M175.899 150.875H164.926V157.789H175.899V150.875Z" fill="#2E353A"/>
<path d="M140.348 193.529H130.162V203.225H140.348V193.529Z" fill="#2E353A"/>
<path d="M185.355 159.448H175.089V169.145H185.355V159.448Z" fill="#2E353A"/>
<path d="M163.189 150.875H152.217V157.789H163.189V150.875Z" fill="#2E353A"/>
<path d="M197.349 159.448H187.083V169.145H197.349V159.448Z" fill="#2E353A"/>
<path d="M188.6 150.875H177.628V157.789H188.6V150.875Z" fill="#2E353A"/>
<path d="M134.194 182.166H114.89V191.862H134.194V182.166Z" fill="#2E353A"/>
<path d="M161.358 159.448H151.093V169.145H161.358V159.448Z" fill="#2E353A"/>
<path d="M128.432 193.529H114.89V203.225H128.432V193.529Z" fill="#2E353A"/>
<path d="M201.31 150.875H190.337V157.789H201.31V150.875Z" fill="#2E353A"/>
<path d="M137.361 159.448H127.096V169.145H137.361V159.448Z" fill="#2E353A"/>
<path d="M137.778 150.875H126.805V157.789H137.778V150.875Z" fill="#2E353A"/>
<path d="M150.487 150.875H139.515V157.789H150.487V150.875Z" fill="#2E353A"/>
<path d="M149.355 159.448H139.09V169.145H149.355V159.448Z" fill="#2E353A"/>
<path d="M173.352 159.448H163.087V169.145H173.352V159.448Z" fill="#2E353A"/>
<path d="M252.141 150.875H241.168V157.789H252.141V150.875Z" fill="#2E353A"/>
<path d="M264.843 150.875H253.87V157.789H264.843V150.875Z" fill="#2E353A"/>
<path d="M257.344 159.448H247.079V169.145H257.344V159.448Z" fill="#2E353A"/>
<path d="M269.346 159.448H259.081V169.145H269.346V159.448Z" fill="#2E353A"/>
<path d="M288.328 193.529H273.213V203.225H288.328V193.529Z" fill="#2E353A"/>
<path d="M277.552 150.875H266.58V157.789H277.552V150.875Z" fill="#2E353A"/>
<path d="M125.367 159.448H114.89V169.145H125.367V159.448Z" fill="#2E353A"/>
<path d="M214.02 150.875H203.047V157.789H214.02V150.875Z" fill="#2E353A"/>
<path d="M226.722 150.875H215.749V157.789H226.722V150.875Z" fill="#2E353A"/>
<path d="M221.353 159.448H211.088V169.145H221.353V159.448Z" fill="#2E353A"/>
<path d="M245.35 159.448H235.084V169.145H245.35V159.448Z" fill="#2E353A"/>
<path d="M209.351 159.448H199.086V169.145H209.351V159.448Z" fill="#2E353A"/>
<path d="M233.348 159.448H223.083V169.145H233.348V159.448Z" fill="#2E353A"/>
<path d="M239.431 150.875H228.458V157.789H239.431V150.875Z" fill="#2E353A"/>
<path d="M223.797 193.529H213.611V203.225H223.797V193.529Z" fill="#2E353A"/>
<path d="M277.246 182.166H267.059V191.862H277.246V182.166Z" fill="#2E353A"/>
<path d="M265.322 182.166H255.135V191.862H265.322V182.166Z" fill="#2E353A"/>
<path d="M271.477 193.529H261.29V203.225H271.477V193.529Z" fill="#2E353A"/>
<path d="M259.561 193.529H249.374V203.225H259.561V193.529Z" fill="#2E353A"/>
<path d="M235.713 193.529H225.527V203.225H235.713V193.529Z" fill="#2E353A"/>
<path d="M247.637 193.529H237.45V203.225H247.637V193.529Z" fill="#2E353A"/>
<path d="M253.398 182.166H243.212V191.862H253.398V182.166Z" fill="#2E353A"/>
<path d="M241.482 182.166H231.296V191.862H241.482V182.166Z" fill="#2E353A"/>
<path d="M288.336 150.875H279.289V157.789H288.336V150.875Z" fill="#2E353A"/>
<path d="M125.076 150.875H114.89V157.789H125.076V150.875Z" fill="#2E353A"/>
<path d="M288.336 204.884H114.89V214.965H288.336V204.884Z" fill="#2E353A"/>
<path d="M288.328 159.448H271.076V169.145H288.328V159.448Z" fill="#2E353A"/>
<path d="M288.328 182.166H278.975V191.862H288.328V182.166Z" fill="#2E353A"/>
<path d="M276.098 180.432H274.361V170.811H264.175V180.432H262.445V170.811H252.259V180.432H250.522V170.811H240.335V180.432H238.598V170.811H228.412V180.432H226.682V170.811H216.496V180.432H214.759V170.811H204.572V180.432H202.835V170.811H192.649V180.432H190.919V170.811H180.733V180.432H178.996V170.811H168.809V180.432H167.072V170.811H156.886V180.432H155.156V170.811H144.97V180.432H143.233V170.811H133.046V180.432H131.309V170.811H114.89V180.507H288.328V170.811H276.098V180.432Z" fill="#2E353A"/>
<path d="M193.796 182.166H183.609V191.862H193.796V182.166Z" fill="#2E353A"/>
<path d="M229.559 182.166H219.373V191.862H229.559V182.166Z" fill="#2E353A"/>
<path d="M169.957 182.166H159.77V191.862H169.957V182.166Z" fill="#2E353A"/>
<path d="M176.111 193.529H165.924V203.225H176.111V193.529Z" fill="#2E353A"/>
<path d="M181.873 182.166H171.686V191.862H181.873V182.166Z" fill="#2E353A"/>
<path d="M158.033 182.166H147.847V191.862H158.033V182.166Z" fill="#2E353A"/>
<path d="M152.272 193.529H142.085V203.225H152.272V193.529Z" fill="#2E353A"/>
<path d="M164.188 193.529H154.001V203.225H164.188V193.529Z" fill="#2E353A"/>
<path d="M205.72 182.166H195.533V191.862H205.72V182.166Z" fill="#2E353A"/>
<path d="M211.874 193.529H201.688V203.225H211.874V193.529Z" fill="#2E353A"/>
<path d="M217.635 182.166H207.449V191.862H217.635V182.166Z" fill="#2E353A"/>
<path d="M188.035 193.529H177.848V203.225H188.035V193.529Z" fill="#2E353A"/>
<path d="M199.95 193.529H189.764V203.225H199.95V193.529Z" fill="#2E353A"/>
<path d="M146.109 182.166H135.923V191.862H146.109V182.166Z" fill="#2E353A"/>
<path d="M308.371 68.938H90.1305C89.0602 68.9388 88.0045 69.1757 87.0449 69.6304C86.0853 70.085 85.2476 70.7453 84.5965 71.5601C83.9454 72.375 83.4983 73.3225 83.2899 74.3295C83.0815 75.3366 83.1172 76.3761 83.3944 77.3677L99.3502 134.355C99.7479 135.778 100.623 137.035 101.841 137.932C103.059 138.828 104.551 139.315 106.086 139.316H128.361V143.26H271.17V139.339H292.392C293.927 139.338 295.419 138.851 296.637 137.954C297.855 137.057 298.73 135.8 299.128 134.378L315.084 77.3903C315.365 76.3991 315.404 75.3591 315.199 74.3508C314.994 73.3426 314.55 72.3931 313.901 71.576C313.252 70.7588 312.415 70.0959 311.457 69.6384C310.498 69.181 309.442 68.9413 308.371 68.938Z" fill="#2E353A" stroke="#2E353A" stroke-linecap="round" stroke-linejoin="round"/>
<path d="M283.691 134.287H114.811L97.9199 75.9805H300.574L283.691 134.287Z" fill="#AEAEAE" stroke="#2E353A" stroke-linecap="round" stroke-linejoin="round"/>
<path d="M126.019 108.696V109.45H123.04V108.696H126.019Z" fill="#2E353A"/>
<path d="M129.729 108.696V109.45H126.742V108.696H129.729Z" fill="#2E353A"/>
<path d="M133.439 108.696V109.45H130.476V108.696H133.439Z" fill="#2E353A"/>
<path d="M137.141 108.696V109.45H134.162V108.696H137.141Z" fill="#2E353A"/>
<path d="M140.851 108.696V109.45H137.864V108.696H140.851Z" fill="#2E353A"/>
<path d="M144.561 108.696V109.45H141.574V108.696H144.561Z" fill="#2E353A"/>
<path d="M148.263 108.696V109.45H145.284V108.696H148.263Z" fill="#2E353A"/>
<path d="M151.933 112.67L148.648 104.271H149.434L152.719 112.67H151.933Z" fill="#2E353A"/>
<path d="M123.017 96.4663V97.2203H120.038V96.4663H123.017Z" fill="#2E353A"/>
<path d="M126.726 96.4663V97.2203H123.748V96.4663H126.726Z" fill="#2E353A"/>
<path d="M130.476 96.4663V97.2203H127.489V96.4663H130.476Z" fill="#2E353A"/>
<path d="M134.146 96.4663V97.2203H131.16V96.4663H134.146Z" fill="#2E353A"/>
<path d="M137.849 96.4663V97.2203H134.87V96.4663H137.849Z" fill="#2E353A"/>
<path d="M144.121 96.4663V97.2203H141.134V96.4663H144.121Z" fill="#2E353A"/>
<path d="M147.823 96.4663V97.2203H144.844V96.4663H147.823Z" fill="#2E353A"/>
<path d="M151.533 96.4663V97.2203H148.554V96.4663H151.533Z" fill="#2E353A"/>
<path d="M155.243 96.4663V97.2203H152.256V96.4663H155.243Z" fill="#2E353A"/>
<path d="M158.945 96.4663V97.2203H155.966V96.4663H158.945Z" fill="#2E353A"/>
<path d="M162.655 96.4663V97.2203H159.676V96.4663H162.655Z" fill="#2E353A"/>
<path d="M166.365 96.4663V97.2203H163.378V96.4663H166.365Z" fill="#2E353A"/>
<path d="M172.629 96.4663V97.2203H169.65V96.4663H172.629Z" fill="#2E353A"/>
<path d="M176.339 96.4663V97.2203H173.352V96.4663H176.339Z" fill="#2E353A"/>
<path d="M180.049 96.4663V97.2203H177.062V96.4663H180.049Z" fill="#2E353A"/>
<path d="M186.282 96.4663V97.2203H183.303V96.4663H186.282Z" fill="#2E353A"/>
<path d="M190.023 96.4663V97.2203H187.068V96.4663H190.023Z" fill="#2E353A"/>
<path d="M193.733 96.4663V97.2203H190.746V96.4663H193.733Z" fill="#2E353A"/>
<path d="M207.677 96.4663V97.2203H204.698V96.4663H207.677Z" fill="#2E353A"/>
<path d="M211.387 96.4663V97.2203H208.4V96.4663H211.387Z" fill="#2E353A"/>
<path d="M215.097 96.4663V97.2203H212.11V96.4663H215.097Z" fill="#2E353A"/>
<path d="M218.799 96.4663V97.2203H215.82V96.4663H218.799Z" fill="#2E353A"/>
<path d="M222.509 96.4663V97.2203H219.522V96.4663H222.509Z" fill="#2E353A"/>
<path d="M228.773 96.4663V97.2203H225.794V96.4663H228.773Z" fill="#2E353A"/>
<path d="M232.483 96.4663V97.2203H229.512V96.4663H232.483Z" fill="#2E353A"/>
<path d="M236.193 96.4663V97.2203H233.206V96.4663H236.193Z" fill="#2E353A"/>
<path d="M242.457 96.4663V97.2203H239.479V96.4663H242.457Z" fill="#2E353A"/>
<path d="M248.729 96.4663V97.2203H245.743V96.4663H248.729Z" fill="#2E353A"/>
<path d="M298.437 220.387L290.026 251.512L297.981 253.751L298.437 220.387Z" fill="white" stroke="#2E353A" stroke-linecap="round" stroke-linejoin="round"/>
<path d="M302.21 187.49C301.26 186.091 300.914 184.393 301.243 182.755C301.675 179.686 305.534 178.985 305.534 178.985C305.534 178.985 306.375 178.374 309.464 179.497C312.553 180.621 336.44 183.727 351.704 185.71C366.968 187.693 371.912 186.411 371.7 191.441C371.488 196.47 358.094 241.604 357.89 243.022C357.685 244.439 302.21 187.49 302.21 187.49Z" fill="white" stroke="#2E353A" stroke-miterlimit="10"/>
<path d="M366.413 195.841L302.203 187.491L291.827 260.915L356.037 269.265L366.413 195.841Z" fill="white" stroke="#2E353A" stroke-linecap="round" stroke-linejoin="round"/>
<path d="M354.479 210.487L358.212 210.977" stroke="#2E353A" stroke-width="0.5" stroke-linecap="round" stroke-linejoin="round"/>
<path d="M331.095 207.448L351.523 210.11" stroke="#2E353A" stroke-width="0.5" stroke-linecap="round" stroke-linejoin="round"/>
<path d="M306.336 204.229L328.14 207.064" stroke="#2E353A" stroke-width="0.5" stroke-linecap="round" stroke-linejoin="round"/>
<path d="M348.63 216.375L357.292 217.506" stroke="#2E353A" stroke-width="0.5" stroke-linecap="round" stroke-linejoin="round"/>
<path d="M305.417 210.758L339.773 215.222" stroke="#2E353A" stroke-width="0.5" stroke-linecap="round" stroke-linejoin="round"/>
<path d="M322.85 219.67L356.373 224.029" stroke="#2E353A" stroke-width="0.5" stroke-linecap="round" stroke-linejoin="round"/>
<path d="M304.489 217.28L319.399 219.226" stroke="#2E353A" stroke-width="0.5" stroke-linecap="round" stroke-linejoin="round"/>
<path d="M333.987 227.769L355.445 230.558" stroke="#2E353A" stroke-width="0.5" stroke-linecap="round" stroke-linejoin="round"/>
<path d="M315.776 225.393L331.527 227.444" stroke="#2E353A" stroke-width="0.5" stroke-linecap="round" stroke-linejoin="round"/>
<path d="M303.569 223.81L313.064 225.047" stroke="#2E353A" stroke-width="0.5" stroke-linecap="round" stroke-linejoin="round"/>
<path d="M346.846 236.085L354.525 237.08" stroke="#2E353A" stroke-width="0.5" stroke-linecap="round" stroke-linejoin="round"/>
<path d="M302.649 230.339L341.682 235.414" stroke="#2E353A" stroke-width="0.5" stroke-linecap="round" stroke-linejoin="round"/>
<path d="M331.896 240.782L353.606 243.61" stroke="#2E353A" stroke-width="0.5" stroke-linecap="round" stroke-linejoin="round"/>
<path d="M301.722 236.862L328.203 240.308" stroke="#2E353A" stroke-width="0.5" stroke-linecap="round" stroke-linejoin="round"/>
<path d="M338.601 248.307L352.678 250.132" stroke="#2E353A" stroke-width="0.5" stroke-linecap="round" stroke-linejoin="round"/>
<path d="M310.054 244.59L335.159 247.855" stroke="#2E353A" stroke-width="0.5" stroke-linecap="round" stroke-linejoin="round"/>
<path d="M300.802 243.391L307.098 244.205" stroke="#2E353A" stroke-width="0.5" stroke-linecap="round" stroke-linejoin="round"/>
<path d="M366.418 195.844C366.418 195.844 367.518 185.605 371.448 189.722" stroke="#2E353A" stroke-linecap="round" stroke-linejoin="round"/>
<path d="M344.646 274.72L344.575 281.227L340.621 275.873L324.752 224.669L328.776 223.516L344.646 274.72Z" fill="white" stroke="#2E353A" stroke-linecap="round" stroke-linejoin="round"/>
<path d="M327.201 225.704L325.005 226.318L340.598 277.602L342.794 276.988L327.201 225.704Z" fill="#AEAEAE" stroke="#2E353A" stroke-width="0.5" stroke-linecap="round" stroke-linejoin="round"/>
<path d="M344.645 274.735L340.629 275.881L344.575 281.227L344.645 274.735Z" stroke="#2E353A" stroke-linecap="round" stroke-linejoin="round"/>
<path d="M342.602 278.55L344.575 281.227L344.614 277.977L342.602 278.55Z" fill="#2E353A" stroke="#2E353A" stroke-linecap="round" stroke-linejoin="round"/>
<path d="M324.988 218.358C324.455 218.512 324.007 218.861 323.742 219.33C323.477 219.799 323.416 220.35 323.573 220.862L324.752 224.669L328.776 223.523L327.597 219.716C327.437 219.205 327.073 218.775 326.584 218.521C326.095 218.267 325.521 218.208 324.988 218.358Z" fill="white" stroke="#2E353A" stroke-linecap="round" stroke-linejoin="round"/>
<path d="M324.988 218.358C324.455 218.512 324.007 218.861 323.742 219.33C323.477 219.799 323.416 220.35 323.573 220.862L324.139 222.679L328.155 221.533L327.597 219.716C327.437 219.205 327.073 218.775 326.584 218.521C326.095 218.267 325.521 218.208 324.988 218.358Z" fill="#2E353A" stroke="#2E353A" stroke-linecap="round" stroke-linejoin="round"/>
<path d="M127.057 188.115C126.554 188.794 126.059 189.503 125.563 190.249" stroke="white" stroke-linecap="round" stroke-linejoin="round"/>
<path d="M135.278 179.037C133.088 180.984 131.062 183.095 129.218 185.348" stroke="white" stroke-linecap="round" stroke-linejoin="round"/>
<path d="M126.357 183.041C124.21 185.93 122.264 188.953 120.533 192.089" stroke="white" stroke-linecap="round" stroke-linejoin="round"/>
<path d="M181.794 199.621C181.299 200.3 180.795 201.008 180.3 201.747" stroke="white" stroke-linecap="round" stroke-linejoin="round"/>
<path d="M190.016 190.543C187.83 192.492 185.806 194.602 183.963 196.854" stroke="white" stroke-linecap="round" stroke-linejoin="round"/>
<path d="M181.102 194.532C178.956 197.438 177.01 200.475 175.278 203.625" stroke="white" stroke-linecap="round" stroke-linejoin="round"/>
<path d="M260.252 180.96C259.537 180.493 258.783 180.025 258.004 179.558" stroke="white" stroke-linecap="round" stroke-linejoin="round"/>
<path d="M269.842 188.711C267.774 186.645 265.543 184.737 263.168 183.003" stroke="white" stroke-linecap="round" stroke-linejoin="round"/>
<path d="M265.534 180.206C262.476 178.191 259.283 176.37 255.977 174.754" stroke="white" stroke-linecap="round" stroke-linejoin="round"/>
<path d="M179.404 227.708C178.996 230.543 178.383 234.494 177.77 236.839" stroke="#2E353A" stroke-linecap="round" stroke-linejoin="round"/>
<path d="M179.86 224.262C179.86 224.262 179.798 224.798 179.68 225.665" stroke="#2E353A" stroke-linecap="round" stroke-linejoin="round"/>
<path d="M181.959 232.307C181.101 235.054 180.05 237.741 178.815 240.352" stroke="#2E353A" stroke-linecap="round" stroke-linejoin="round"/>
<path d="M221.259 236.326C221.259 236.326 221.785 242.863 225.448 246.385" stroke="#2E353A" stroke-linecap="round" stroke-linejoin="round"/>
<path d="M220.732 242.863C220.732 242.863 222.304 247.387 225.448 249.4" stroke="#2E353A" stroke-linecap="round" stroke-linejoin="round"/>
<g style="mix-blend-mode:multiply">
<path d="M113.97 277.804C113.97 277.804 117.46 275.112 117.46 251.972C117.46 228.831 121.476 211.927 126.428 204.515C131.38 197.103 136.009 194.132 138.179 194.132C140.348 194.132 138.792 196.801 135.703 200.654C132.614 204.507 129.831 206.588 128.589 211.338C127.347 216.089 127.355 222.015 128.904 221.419C130.452 220.824 132.92 208.963 135.082 204.515C137.243 200.066 142.509 194.426 145.598 191.757C148.687 189.088 155.494 181.08 158.583 183.154C161.672 185.227 159.825 188.198 157.97 189.382C156.115 190.566 148.687 197.676 145.292 202.14C141.896 206.603 139.727 217.861 141.582 218.155C143.437 218.449 149.002 201.846 152.091 198.287C155.18 194.728 167.551 184.933 170.334 184.639C173.116 184.345 173.431 188.492 170.955 190.573C168.479 192.654 160.132 201.544 157.349 206.882C154.567 212.221 153.325 222.015 155.777 219.64C158.229 217.265 162.269 207.478 165.673 204.213C169.076 200.948 179.278 190.573 181.754 191.757C184.23 192.941 183.609 195.912 181.448 197.985C179.286 200.059 170.931 211.338 168.77 217.265C166.608 223.191 164.124 239.81 165.366 237.442C166.608 235.074 170.625 222.905 172.786 217.838C174.948 212.771 179.278 210.426 179.899 212.794C180.52 215.161 179.278 216.353 177.73 221.698C176.182 227.044 176.158 241.302 171.552 249.28C166.946 257.257 148.459 274.328 145.991 280.254C144.204 284.336 142.069 288.27 139.609 292.016" fill="#AEAEAE"/>
</g>
<g style="mix-blend-mode:multiply">
<path d="M285.75 279.809C285.75 279.809 282.174 275.112 282.174 251.972C282.174 228.831 278.15 211.927 273.206 204.515C268.262 197.103 263.617 194.132 261.455 194.132C259.294 194.132 260.834 196.801 263.931 200.654C267.028 204.507 269.802 206.588 271.005 211.338C272.208 216.089 272.247 222.015 270.699 221.419C269.15 220.824 266.682 208.963 264.513 204.515C262.343 200.066 257.093 194.426 254.004 191.757C250.915 189.088 244.108 181.08 241.011 183.154C237.914 185.227 239.777 188.198 241.632 189.382C243.487 190.566 250.907 197.676 254.31 202.14C257.714 206.603 259.875 217.861 258.02 218.155C256.165 218.449 250.624 201.846 247.535 198.302C244.446 194.758 232.067 184.948 229.284 184.654C226.502 184.36 226.195 188.507 228.671 190.588C231.147 192.669 239.494 201.559 242.277 206.897C245.059 212.236 246.293 222.03 243.849 219.655C241.404 217.28 237.356 207.493 233.961 204.228C230.565 200.963 220.355 190.588 217.879 191.772C215.403 192.956 216.024 195.927 218.186 198C220.347 200.074 228.703 211.354 230.864 217.28C233.026 223.206 235.501 239.825 234.267 237.457C233.033 235.089 229.009 222.92 226.848 217.853C224.686 212.786 220.355 210.441 219.734 212.809C219.113 215.176 220.355 216.368 221.896 221.713C223.436 227.059 223.468 241.318 228.082 249.295C232.695 257.272 250.656 272.842 253.131 278.776C255.607 284.71 260.088 294.06 260.088 294.06" fill="#AEAEAE"/>
</g>
<path d="M112.791 283.504C112.791 283.504 117.428 268.974 117.428 245.804C117.428 222.634 121.445 205.759 126.397 198.347C131.348 190.935 135.978 187.965 138.147 187.965C140.317 187.965 138.76 190.634 135.671 194.487C132.582 198.34 129.8 200.421 128.558 205.163C127.316 209.906 127.324 215.848 128.873 215.252C130.421 214.656 132.889 202.796 135.051 198.347C137.212 193.899 142.478 188.259 145.567 185.59C148.656 182.92 155.463 174.913 158.552 176.986C161.641 179.06 159.794 182.031 157.939 183.215C156.084 184.398 148.656 191.509 145.261 195.972C141.865 200.436 139.696 211.693 141.551 211.987C143.406 212.281 148.971 195.678 152.06 192.112C155.149 188.545 167.52 178.766 170.303 178.472C173.085 178.178 173.399 182.325 170.924 184.406C168.448 186.487 160.1 195.377 157.318 200.715C154.535 206.053 153.294 215.848 155.746 213.473C158.198 211.097 162.238 201.311 165.642 198.046C169.045 194.781 179.247 184.406 181.723 185.59C184.199 186.773 183.578 189.744 181.417 191.818C179.255 193.891 170.9 205.163 168.738 211.097C166.577 217.031 164.093 233.642 165.335 231.267C166.577 228.892 170.593 216.737 172.755 211.663C174.916 206.589 179.247 204.244 179.868 206.619C180.489 208.994 179.247 210.178 177.699 215.516C176.15 220.854 176.127 235.12 171.521 243.105C166.915 251.09 148.947 272.767 146.471 278.701C143.995 284.635 138.43 297.687 138.43 297.687" fill="white"/>
<path d="M112.791 283.504C112.791 283.504 117.428 268.974 117.428 245.804C117.428 222.634 121.445 205.759 126.397 198.347C131.348 190.935 135.978 187.965 138.147 187.965C140.317 187.965 138.76 190.634 135.671 194.487C132.582 198.34 129.8 200.421 128.558 205.163C127.316 209.906 127.324 215.848 128.873 215.252C130.421 214.656 132.889 202.796 135.051 198.347C137.212 193.899 142.478 188.259 145.567 185.59C148.656 182.92 155.463 174.913 158.552 176.986C161.641 179.06 159.794 182.031 157.939 183.215C156.084 184.398 148.656 191.509 145.261 195.972C141.865 200.436 139.696 211.693 141.551 211.987C143.406 212.281 148.971 195.678 152.06 192.112C155.149 188.545 167.52 178.766 170.303 178.472C173.085 178.178 173.399 182.325 170.924 184.406C168.448 186.487 160.1 195.377 157.318 200.715C154.535 206.053 153.294 215.848 155.746 213.473C158.198 211.097 162.238 201.311 165.642 198.046C169.045 194.781 179.247 184.406 181.723 185.59C184.199 186.773 183.578 189.744 181.417 191.818C179.255 193.891 170.9 205.163 168.738 211.097C166.577 217.031 164.093 233.642 165.335 231.267C166.577 228.892 170.593 216.737 172.755 211.663C174.916 206.589 179.247 204.244 179.868 206.619C180.489 208.994 179.247 210.178 177.699 215.516C176.15 220.854 176.127 235.12 171.521 243.105C166.915 251.09 148.947 272.767 146.471 278.701C143.995 284.635 138.43 297.687 138.43 297.687" stroke="#2E353A" stroke-linecap="round" stroke-linejoin="round"/>
<path d="M286.803 283.504C286.803 283.504 282.166 268.974 282.166 245.804C282.166 222.634 278.142 205.759 273.198 198.347C268.254 190.935 263.609 187.965 261.447 187.965C259.286 187.965 260.826 190.634 263.923 194.487C267.02 198.34 269.794 200.421 270.997 205.163C272.199 209.906 272.239 215.848 270.69 215.252C269.142 214.656 266.674 202.796 264.505 198.347C262.335 193.899 257.085 188.259 253.996 185.59C250.907 182.92 244.1 174.913 241.003 176.986C237.906 179.06 239.769 182.031 241.624 183.215C243.479 184.398 250.899 191.509 254.302 195.972C257.706 200.436 259.867 211.693 258.012 211.987C256.157 212.281 250.592 195.678 247.503 192.112C244.414 188.545 232.035 178.766 229.252 178.472C226.47 178.178 226.163 182.325 228.639 184.406C231.115 186.487 239.463 195.377 242.245 200.715C245.027 206.053 246.261 215.848 243.817 213.473C241.373 211.097 237.325 201.311 233.929 198.046C230.534 194.781 220.323 184.406 217.848 185.59C215.372 186.773 215.993 189.744 218.154 191.818C220.316 193.891 228.671 205.163 230.832 211.097C232.994 217.031 235.47 233.642 234.236 231.267C233.002 228.892 228.977 216.737 226.816 211.663C224.654 206.589 220.323 204.244 219.703 206.619C219.082 208.994 220.323 210.178 221.864 215.516C223.405 220.854 223.436 235.12 228.05 243.105C232.664 251.09 250.624 272.767 253.1 278.701C255.576 284.635 261.14 297.687 261.14 297.687" fill="white"/>
<path d="M286.803 283.504C286.803 283.504 282.166 268.974 282.166 245.804C282.166 222.634 278.142 205.759 273.198 198.347C268.254 190.935 263.609 187.965 261.447 187.965C259.286 187.965 260.826 190.634 263.923 194.487C267.02 198.34 269.794 200.421 270.997 205.163C272.199 209.906 272.239 215.848 270.69 215.252C269.142 214.656 266.674 202.796 264.505 198.347C262.335 193.899 257.085 188.259 253.996 185.59C250.907 182.92 244.1 174.913 241.003 176.986C237.906 179.06 239.769 182.031 241.624 183.215C243.479 184.398 250.899 191.509 254.302 195.972C257.706 200.436 259.867 211.693 258.012 211.987C256.157 212.281 250.592 195.678 247.503 192.112C244.414 188.545 232.035 178.766 229.252 178.472C226.47 178.178 226.163 182.325 228.639 184.406C231.115 186.487 239.463 195.377 242.245 200.715C245.027 206.053 246.261 215.848 243.817 213.473C241.373 211.097 237.325 201.311 233.929 198.046C230.534 194.781 220.323 184.406 217.848 185.59C215.372 186.773 215.993 189.744 218.154 191.818C220.316 193.891 228.671 205.163 230.832 211.097C232.994 217.031 235.47 233.642 234.236 231.267C233.002 228.892 228.977 216.737 226.816 211.663C224.654 206.589 220.323 204.244 219.703 206.619C219.082 208.994 220.323 210.178 221.864 215.516C223.405 220.854 223.436 235.12 228.05 243.105C232.664 251.09 250.624 272.767 253.1 278.701C255.576 284.635 261.14 297.687 261.14 297.687" stroke="#2E353A" stroke-linecap="round" stroke-linejoin="round"/>
<path d="M93.2197 328.744H140.38C140.993 326.482 141.763 323.948 142.738 321.204C146.448 310.542 158.458 297.211 158.458 297.211C149.85 289.939 139.735 284.497 128.778 281.242C110.7 275.903 97.4641 277.472 97.4641 277.472C99.9007 287.109 100.169 297.133 98.2501 306.878C95.8921 317.856 94.3201 324.8 93.2197 328.744Z" fill="#2E353A" stroke="#2E353A" stroke-linecap="round" stroke-linejoin="round"/>
<path d="M258.909 328.744H307.908C306.336 324.838 302.94 316.356 299.545 307.873C294.907 296.322 296.762 280.774 294.907 280.774C293.052 280.774 272.216 279.44 262.029 282.546C251.842 285.653 240.257 294.542 240.257 294.542C245.501 300.388 250.01 306.806 253.69 313.664C256.055 318.471 257.807 323.534 258.909 328.744Z" fill="#2E353A" stroke="#2E353A" stroke-linecap="round" stroke-linejoin="round"/>
<path d="M122.679 286.67C122.341 285.389 117.31 287.319 117.31 287.319C117.31 287.319 118.992 281.211 116.312 281.211C113.632 281.211 113.294 285.735 113.294 285.735C113.294 285.735 108.264 283.813 108.264 286.701C108.264 289.588 111.612 289.536 111.612 289.536C111.612 289.536 107.588 294.361 110.606 295.319C113.624 296.276 115.628 292.748 115.628 292.748C115.628 292.748 117.641 295.967 120.344 294.678C123.048 293.389 121.013 290.501 121.013 290.501C121.013 290.501 123.009 287.96 122.679 286.67ZM115.974 291.496C115.721 291.442 115.489 291.321 115.305 291.146C115.121 290.971 114.992 290.749 114.933 290.507C114.875 290.265 114.888 290.012 114.973 289.777C115.058 289.542 115.21 289.335 115.412 289.179C115.614 289.023 115.858 288.926 116.115 288.897C116.373 288.869 116.633 288.911 116.867 289.018C117.101 289.125 117.298 289.294 117.436 289.504C117.575 289.715 117.648 289.958 117.648 290.207C117.592 290.585 117.387 290.929 117.077 291.168C116.766 291.408 116.372 291.525 115.974 291.496ZM130.052 322.712C129.714 321.43 124.683 323.36 124.683 323.36C124.683 323.36 126.365 317.253 123.677 317.253C120.989 317.253 120.667 321.777 120.667 321.777C120.667 321.777 115.636 319.846 115.636 322.734C115.636 325.622 118.992 325.63 118.992 325.63C118.992 325.63 114.968 330.455 117.986 331.42C121.005 332.385 123.009 328.842 123.009 328.842C123.009 328.842 125.021 332.061 127.725 330.772C130.429 329.483 128.393 326.595 128.393 326.595C128.393 326.595 130.382 323.963 130.052 322.712ZM123.347 327.537C123.094 327.483 122.862 327.362 122.678 327.187C122.494 327.012 122.365 326.791 122.306 326.548C122.247 326.306 122.261 326.053 122.346 325.818C122.43 325.583 122.582 325.376 122.785 325.22C122.987 325.065 123.23 324.967 123.488 324.938C123.745 324.91 124.006 324.952 124.24 325.059C124.474 325.167 124.671 325.335 124.809 325.545C124.947 325.756 125.021 325.999 125.021 326.248C124.964 326.623 124.758 326.963 124.446 327.197C124.134 327.43 123.74 327.538 123.347 327.499V327.537ZM100.553 327.537C100.215 326.248 95.1924 328.178 95.1924 328.178C95.1924 328.178 96.8666 322.071 94.1863 322.071C91.5061 322.071 91.1681 326.595 91.1681 326.595C91.1681 326.595 86.1377 324.664 86.1377 327.56C86.1377 330.455 89.4939 330.455 89.4939 330.455C89.4939 330.455 85.4696 335.273 88.4878 336.238C91.5061 337.203 93.5104 333.667 93.5104 333.667C93.5104 333.667 95.5225 336.879 98.2264 335.597C100.93 334.316 98.9023 331.42 98.9023 331.42C98.9023 331.42 100.891 328.781 100.561 327.499L100.553 327.537ZM93.8484 332.355C93.595 332.301 93.3628 332.179 93.1785 332.004C92.9943 331.829 92.8654 331.607 92.8069 331.365C92.7485 331.122 92.7627 330.869 92.848 330.634C92.9333 330.398 93.0862 330.191 93.289 330.036C93.4918 329.881 93.7363 329.784 93.9942 329.756C94.2522 329.728 94.513 329.771 94.7465 329.88C94.9801 329.988 95.1769 330.158 95.3142 330.369C95.4515 330.58 95.5238 330.825 95.5225 331.073C95.464 331.446 95.2584 331.783 94.9483 332.015C94.6382 332.246 94.2473 332.355 93.8562 332.318L93.8484 332.355ZM137.078 302.459H140.765C143.445 302.459 145.119 305.355 145.119 305.355C139.429 306.923 137.086 302.421 137.086 302.421L137.078 302.459ZM133.392 327.537H137.078C139.759 327.537 141.433 330.433 141.433 330.433C135.742 332.001 133.4 327.499 133.4 327.499L133.392 327.537ZM101.229 322.712H104.915C107.595 322.712 109.27 325.607 109.27 325.607C103.571 327.175 101.229 322.712 101.229 322.712ZM119.048 300.024L121.201 302.896C122.773 304.993 121.288 307.978 121.288 307.978C116.603 304.442 119.048 299.986 119.048 299.986V300.024ZM100.608 309.63L102.29 306.486C103.524 304.224 106.967 304.088 106.967 304.088C105.811 309.682 100.608 309.63 100.608 309.63Z" fill="white"/>
<path d="M280.516 292.778C280.178 291.496 275.147 293.426 275.147 293.426C275.147 293.426 276.829 287.319 274.149 287.319C271.469 287.319 271.131 291.843 271.131 291.843C271.131 291.843 266.1 289.92 266.1 292.808C266.1 295.696 269.457 295.703 269.457 295.703C269.457 295.703 265.432 300.529 268.451 301.494C271.469 302.459 273.473 298.915 273.473 298.915C273.473 298.915 275.485 302.135 278.189 300.846C280.893 299.556 278.857 296.668 278.857 296.668C278.857 296.668 280.846 294.06 280.516 292.778ZM273.811 297.603C273.558 297.549 273.326 297.428 273.142 297.253C272.958 297.078 272.829 296.857 272.77 296.615C272.711 296.372 272.725 296.119 272.81 295.884C272.894 295.649 273.047 295.442 273.249 295.286C273.451 295.131 273.695 295.033 273.952 295.005C274.21 294.976 274.47 295.018 274.704 295.125C274.938 295.233 275.135 295.401 275.273 295.612C275.412 295.822 275.485 296.065 275.485 296.314C275.438 296.696 275.236 297.046 274.923 297.287C274.61 297.528 274.211 297.642 273.811 297.603ZM296.259 317.856C295.929 316.567 290.899 318.497 290.899 318.497C290.899 318.497 292.573 312.389 289.893 312.389C287.212 312.389 286.882 316.913 286.882 316.913C286.882 316.913 281.852 314.983 281.852 317.878C281.852 320.774 285.2 320.774 285.2 320.774C285.2 320.774 281.184 325.592 284.202 326.557C287.22 327.522 289.225 323.986 289.225 323.986C289.225 323.986 291.237 327.198 293.941 325.916C296.644 324.634 294.609 321.739 294.609 321.739C294.609 321.739 296.597 319.138 296.259 317.856ZM289.563 322.712C289.309 322.658 289.077 322.536 288.893 322.361C288.708 322.185 288.58 321.964 288.521 321.721C288.463 321.478 288.477 321.225 288.562 320.99C288.647 320.755 288.8 320.548 289.003 320.392C289.206 320.237 289.451 320.14 289.708 320.112C289.966 320.085 290.227 320.128 290.461 320.236C290.694 320.345 290.891 320.514 291.028 320.725C291.166 320.937 291.238 321.181 291.237 321.43C291.187 321.811 290.985 322.158 290.672 322.398C290.359 322.637 289.961 322.75 289.563 322.712ZM279.51 327.537C279.172 326.248 274.149 328.178 274.149 328.178C274.149 328.178 275.823 322.071 273.143 322.071C270.463 322.071 270.125 326.595 270.125 326.595C270.125 326.595 265.094 324.664 265.094 327.56C265.094 330.455 268.451 330.455 268.451 330.455C268.451 330.455 264.426 335.273 267.445 336.238C270.463 337.203 272.467 333.667 272.467 333.667C272.467 333.667 274.479 336.879 277.183 335.597C279.887 334.316 277.859 331.42 277.859 331.42C277.859 331.42 279.816 328.781 279.51 327.5V327.537ZM272.805 332.355C272.552 332.301 272.319 332.179 272.135 332.004C271.951 331.829 271.822 331.607 271.764 331.365C271.705 331.122 271.719 330.869 271.805 330.634C271.89 330.398 272.043 330.191 272.246 330.036C272.449 329.881 272.693 329.784 272.951 329.756C273.209 329.728 273.47 329.771 273.703 329.88C273.937 329.988 274.134 330.158 274.271 330.369C274.408 330.58 274.48 330.825 274.479 331.073C274.421 331.448 274.214 331.786 273.902 332.017C273.59 332.249 273.197 332.357 272.805 332.318V332.355ZM294.923 308.567H298.609C301.29 308.567 302.964 311.462 302.964 311.462C297.265 313.03 294.923 308.529 294.923 308.529V308.567ZM255.379 326.859H259.066C261.746 326.859 263.42 329.746 263.42 329.746C257.722 331.36 255.379 326.859 255.379 326.859ZM276.884 306.124L279.038 308.996C280.61 311.092 279.124 314.078 279.124 314.078C274.44 310.55 276.884 306.124 276.884 306.124ZM298.68 324.099L300.826 326.972C302.398 329.06 300.912 332.054 300.912 332.054C296.228 328.548 298.68 324.099 298.68 324.099ZM258.413 315.737L260.095 312.593C261.329 310.331 264.811 310.195 264.811 310.195C263.648 315.79 258.405 315.737 258.405 315.737H258.413Z" fill="white"/>
</svg>
