<svg width="171" height="115" viewBox="0 0 171 115" fill="none" xmlns="http://www.w3.org/2000/svg">
<path d="M169.919 108.227C170.07 108.458 170.005 108.768 169.774 108.919L166.005 111.378C165.774 111.529 165.464 111.464 165.313 111.233C165.162 111.002 165.227 110.692 165.459 110.541L168.808 108.355L166.622 105.005C166.471 104.774 166.536 104.464 166.768 104.313C166.999 104.162 167.309 104.227 167.46 104.459L169.919 108.227ZM1.97881 0.856632C2.1771 1.51615 2.37862 2.17102 2.58336 2.82128L1.62952 3.1216C1.42347 2.46719 1.22068 1.80819 1.02115 1.14456L1.97881 0.856632ZM3.8502 6.66796C4.29578 7.96263 4.75467 9.23833 5.22671 10.4954L4.29053 10.8469C3.81521 9.5811 3.35319 8.2967 2.90464 6.99339L3.8502 6.66796ZM6.6977 14.2496C7.21672 15.5199 7.74979 16.7704 8.29671 18.0015L7.38283 18.4075C6.83178 17.1671 6.29477 15.9073 5.77199 14.6278L6.6977 14.2496ZM9.99462 21.67C10.5871 22.8993 11.194 24.1084 11.8153 25.2979L10.9289 25.7609C10.3026 24.5618 9.69085 23.343 9.09377 22.1041L9.99462 21.67ZM13.7526 28.8625C14.4197 30.0424 15.1016 31.2022 15.7981 32.3421L14.9448 32.8635C14.2424 31.7139 13.5547 30.5444 12.8821 29.3546L13.7526 28.8625ZM17.9792 35.776C18.7274 36.9097 19.4909 38.0228 20.2694 39.1161L19.4548 39.6961C18.6694 38.5933 17.8993 37.4704 17.1446 36.3269L17.9792 35.776ZM22.6744 42.3689C23.5022 43.4475 24.3455 44.5058 25.204 45.5443L24.4332 46.1815C23.5671 45.1337 22.7163 44.066 21.8811 42.9778L22.6744 42.3689ZM27.8399 48.6183C28.7397 49.6301 29.6548 50.6223 30.585 51.5953L29.8622 52.2863C28.9238 51.3046 28.0005 50.3037 27.0926 49.2829L27.8399 48.6183ZM33.4394 54.4764C34.4083 55.4201 35.3922 56.345 36.3908 57.2516L35.7186 57.992C34.7114 57.0776 33.719 56.1447 32.7417 55.1928L33.4394 54.4764ZM39.438 59.9237C40.4691 60.7971 41.5147 61.6528 42.5747 62.4914L41.9542 63.2756C40.8857 62.4303 39.8314 61.5675 38.7916 60.6868L39.438 59.9237ZM45.7943 64.9542C46.8803 65.7575 47.9802 66.5443 49.0938 67.3153L48.5246 68.1375C47.4026 67.3607 46.2941 66.5678 45.1996 65.7582L45.7943 64.9542ZM52.4601 69.5713C53.5917 70.3055 54.7365 71.0247 55.8942 71.7294L55.3743 72.5836C54.2086 71.874 53.0557 71.1498 51.9158 70.4102L52.4601 69.5713ZM59.3927 73.7933C60.5617 74.4617 61.743 75.1165 62.9363 75.7583L62.4626 76.639C61.2619 75.9932 60.073 75.3342 58.8964 74.6614L59.3927 73.7933ZM66.5344 77.6364C67.7387 78.2465 68.9546 78.8444 70.1817 79.4306L69.7506 80.3329C68.5167 79.7434 67.2939 79.1421 66.0825 78.5284L66.5344 77.6364ZM73.8577 81.1374C75.0872 81.6923 76.3273 82.2364 77.5778 82.7702L77.1852 83.6899C75.9286 83.1535 74.6822 82.6066 73.4464 82.0489L73.8577 81.1374ZM81.3311 84.3296C82.5793 84.8345 83.8373 85.3299 85.1048 85.8164L84.7465 86.75C83.4736 86.2614 82.2101 85.7638 80.9562 85.2567L81.3311 84.3296ZM88.915 87.2421C90.1811 87.704 91.4563 88.1578 92.7402 88.6039L92.4121 89.5485C91.1234 89.1008 89.8434 88.6453 88.5722 88.1815L88.915 87.2421ZM96.5863 89.9089C97.8701 90.3344 99.1621 90.7529 100.462 91.1648L100.16 92.1181C98.8561 91.7049 97.5598 91.2851 96.2717 90.8581L96.5863 89.9089ZM104.335 92.3654C105.628 92.7576 106.928 93.1439 108.236 93.5247L107.956 94.4848C106.645 94.103 105.341 93.7156 104.045 93.3223L104.335 92.3654ZM112.145 94.641C113.444 95.0048 114.75 95.3638 116.063 95.7182L115.802 96.6836C114.486 96.3284 113.177 95.9687 111.875 95.604L112.145 94.641ZM120.003 96.7636C121.306 97.1036 122.616 97.4397 123.933 97.7722L123.688 98.7417C122.369 98.4087 121.057 98.0719 119.75 97.7312L120.003 96.7636ZM127.885 98.7559C129.196 99.0774 130.513 99.3958 131.836 99.7115L131.603 100.684C130.279 100.368 128.96 100.049 127.647 99.7271L127.885 98.7559ZM135.796 100.645C137.113 100.952 138.436 101.256 139.764 101.559L139.541 102.534C138.212 102.231 136.888 101.926 135.569 101.619L135.796 100.645ZM143.728 102.453C145.051 102.749 146.378 103.043 147.71 103.336L147.495 104.312C146.162 104.019 144.834 103.725 143.51 103.429L143.728 102.453ZM151.677 104.201C153.001 104.488 154.33 104.774 155.662 105.06L155.453 106.038C154.12 105.752 152.79 105.466 151.465 105.179L151.677 104.201ZM159.637 105.908C160.962 106.189 162.29 106.47 163.623 106.752L163.416 107.73C162.083 107.449 160.755 107.168 159.43 106.886L159.637 105.908ZM167.604 107.591C168.27 107.731 168.936 107.871 169.603 108.011L169.397 108.99C168.73 108.849 168.064 108.709 167.398 108.569L167.604 107.591ZM170.338 107.954C170.64 108.416 170.509 109.036 170.047 109.338L162.51 114.256C162.047 114.558 161.428 114.428 161.126 113.966C160.824 113.503 160.954 112.883 161.417 112.582L168.116 108.209L163.744 101.51C163.442 101.047 163.572 100.428 164.035 100.126C164.497 99.824 165.117 99.9543 165.419 100.417L170.338 107.954ZM2.45763 0.71267C2.6553 1.37013 2.85619 2.02293 3.06028 2.67112L1.1526 3.27176C0.9459 2.61527 0.74247 1.9542 0.542328 1.28852L2.45763 0.71267ZM4.32299 6.50525C4.76708 7.79559 5.22441 9.06694 5.69479 10.3197L3.82244 11.0227C3.34548 9.75248 2.88189 8.46373 2.43185 7.1561L4.32299 6.50525ZM7.16056 14.0604C7.67769 15.3261 8.20879 16.572 8.75365 17.7985L6.92589 18.6105C6.37278 17.3654 5.8338 16.101 5.30913 14.8169L7.16056 14.0604ZM10.445 21.4529C11.0352 22.6774 11.6397 23.8818 12.2585 25.0664L10.4857 25.9923C9.85693 24.7885 9.24274 23.5649 8.64335 22.3212L10.445 21.4529ZM14.1879 28.6164C14.8522 29.7915 15.5312 30.9463 16.2248 32.0815L14.5181 33.1242C13.8127 31.9697 13.1222 30.7953 12.4469 29.6007L14.1879 28.6164ZM18.3964 35.5006C19.1414 36.6293 19.9016 37.7376 20.6766 38.826L19.0475 39.9862C18.2587 38.8785 17.4852 37.7507 16.7273 36.6023L18.3964 35.5006ZM23.0711 42.0645C23.8952 43.1383 24.7347 44.1919 25.5893 45.2258L24.0478 46.5C23.1779 45.4476 22.3233 44.3752 21.4845 43.2822L23.0711 42.0645ZM28.2135 48.286C29.1093 49.2933 30.0204 50.2811 30.9464 51.2498L29.5007 52.6318C28.5582 51.6458 27.6309 50.6405 26.719 49.6151L28.2135 48.286ZM33.7883 54.1182C34.7529 55.0578 35.7325 55.9787 36.7269 56.8815L35.3825 58.3622C34.371 57.4439 33.3744 56.507 32.3928 55.5509L33.7883 54.1182ZM39.7611 59.5422C40.7879 60.412 41.8293 61.2641 42.8849 62.0993L41.644 63.6678C40.5711 62.819 39.5125 61.9527 38.4684 61.0683L39.7611 59.5422ZM46.0916 64.5522C47.1733 65.3523 48.269 66.1361 49.3784 66.9042L48.24 68.5486C47.1137 67.7688 46.0011 66.9729 44.9023 66.1601L46.0916 64.5522ZM52.7322 69.1519C53.8598 69.8834 55.0005 70.6 56.1542 71.3023L55.1143 73.0107C53.9446 72.2987 52.7876 71.5719 51.6437 70.8297L52.7322 69.1519ZM59.6409 73.3592C60.806 74.0254 61.9835 74.6781 63.1732 75.318L62.2258 77.0794C61.0213 76.4315 59.8287 75.7704 58.6482 75.0954L59.6409 73.3592ZM66.7603 77.1903C67.9611 77.7986 69.1735 78.3948 70.3973 78.9795L69.5351 80.7841C68.2978 80.193 67.0715 79.5899 65.8566 78.9745L66.7603 77.1903ZM74.0634 80.6817C75.2897 81.2351 76.5267 81.7778 77.7741 82.3103L76.9889 84.1498C75.7293 83.612 74.4798 83.0638 73.2407 82.5046L74.0634 80.6817ZM81.5186 83.8661C82.7639 84.3698 84.0191 84.8641 85.284 85.3496L84.5673 87.2168C83.2917 86.7272 82.0254 86.2285 80.7687 85.7202L81.5186 83.8661ZM89.0863 86.7724C90.35 87.2334 91.6227 87.6863 92.9043 88.1316L92.248 90.0208C90.957 89.5723 89.6745 89.1159 88.4009 88.6512L89.0863 86.7724ZM96.7436 89.4343C98.0252 89.8591 99.3152 90.2769 100.613 90.6881L100.009 92.5948C98.703 92.1809 97.4046 91.7604 96.1144 91.3328L96.7436 89.4343ZM104.48 91.8869C105.771 92.2786 107.069 92.6643 108.375 93.0446L107.816 94.9649C106.503 94.5826 105.198 94.1947 103.899 93.8007L104.48 91.8869ZM112.28 94.1595C113.577 94.5229 114.882 94.8814 116.193 95.2355L115.672 97.1663C114.355 96.8107 113.044 96.4506 111.74 96.0854L112.28 94.1595ZM120.129 96.2798C121.431 96.6195 122.74 96.9552 124.055 97.2874L123.565 99.2265C122.245 98.8931 120.932 98.5561 119.624 98.215L120.129 96.2798ZM128.004 98.2703C129.314 98.5916 130.63 98.9097 131.952 99.2251L131.487 101.17C130.162 100.854 128.842 100.535 127.528 100.213L128.004 98.2703ZM135.909 100.158C137.226 100.465 138.548 100.769 139.875 101.071L139.43 103.021C138.1 102.718 136.775 102.413 135.455 102.106L135.909 100.158ZM143.837 101.965C145.159 102.261 146.486 102.555 147.817 102.847L147.388 104.801C146.054 104.508 144.725 104.213 143.401 103.917L143.837 101.965ZM151.783 103.713C153.107 104 154.435 104.286 155.767 104.571L155.348 106.527C154.014 106.241 152.685 105.955 151.359 105.667L151.783 103.713ZM159.741 105.419C161.066 105.7 162.394 105.981 163.726 106.262L163.313 108.219C161.98 107.938 160.651 107.657 159.326 107.375L159.741 105.419ZM167.707 107.101C168.372 107.241 169.039 107.381 169.706 107.522L169.295 109.479C168.627 109.339 167.961 109.198 167.295 109.058L167.707 107.101Z" fill="#282828"/>
</svg>
