<svg width="58" height="57" viewBox="0 0 58 57" fill="none" xmlns="http://www.w3.org/2000/svg">
<path d="M31.5968 54.2796C41.869 54.2796 50.1963 45.9523 50.1963 35.6801C50.1963 25.4078 41.869 17.0806 31.5968 17.0806C21.3246 17.0806 12.9973 25.4078 12.9973 35.6801C12.9973 45.9523 21.3246 54.2796 31.5968 54.2796Z" fill="white" stroke="#2E353A" stroke-linecap="round" stroke-linejoin="round"/>
<path d="M30.2124 52.4319C40.4846 52.4319 48.8119 44.1046 48.8119 33.8324C48.8119 23.5602 40.4846 15.2329 30.2124 15.2329C19.9402 15.2329 11.6129 23.5602 11.6129 33.8324C11.6129 44.1046 19.9402 52.4319 30.2124 52.4319Z" fill="white" stroke="#2E353A" stroke-linecap="round" stroke-linejoin="round"/>
<path d="M30.2124 50.5844C39.4642 50.5844 46.9643 43.0843 46.9643 33.8325C46.9643 24.5807 39.4642 17.0806 30.2124 17.0806C20.9605 17.0806 13.4604 24.5807 13.4604 33.8325C13.4604 43.0843 20.9605 50.5844 30.2124 50.5844Z" fill="#2E353A" stroke="#2E353A" stroke-linecap="round" stroke-linejoin="round"/>
<path d="M28.2464 21.2388C28.2464 21.2388 26.3988 16.6172 23.1669 13.3853C19.935 10.1534 6.75973 8.06888 6.75973 8.06888C8.88724 10.1209 10.8219 12.3639 12.5394 14.7697C15.5397 18.928 25.467 28.4028 25.467 28.4028C25.467 28.4028 20.6191 24.2445 16.2238 23.7812C11.8284 23.318 0.743033 25.6288 0.0643368 25.6288C-0.614359 25.6288 4.22269 27.4763 7.69158 29.0923C11.1605 30.7082 24.5566 32.0979 24.5566 32.0979C24.5566 32.0979 18.7823 33.7139 14.861 35.1036C10.9396 36.4933 7.22296 46.6522 7.22296 46.6522C7.22296 46.6522 12.3078 42.0306 16.6978 40.8779C21.0877 39.7252 27.3253 37.646 27.3253 37.646C27.3253 37.646 23.3985 42.036 22.4775 45.0416C21.5564 48.0473 22.2458 54.9743 22.2458 54.9743C22.2458 54.9743 24.325 48.5105 26.8674 45.9627C29.4099 43.4149 32.1731 39.0573 32.1731 39.0573C33.4529 41.1433 34.6111 43.3015 35.642 45.521C37.4896 49.4478 38.6423 55.2167 38.6423 55.2167C38.6423 55.2167 41.6479 48.7529 41.4163 45.521C41.1847 42.2892 37.7212 36.5095 37.7212 36.5095C37.7212 36.5095 40.032 34.8935 43.4955 36.2778C46.959 37.6622 52.9703 43.4419 52.9703 43.4419C52.9703 43.4419 51.5806 35.8146 49.2698 32.8143C46.959 29.8141 37.0263 28.8822 37.0263 28.8822C37.0263 28.8822 42.5744 25.6503 46.0379 24.9555C49.5014 24.2606 54.1176 25.8819 54.1176 25.8819C54.1176 25.8819 48.8065 18.4863 44.6482 18.0231C40.4898 17.5598 34.2523 24.0128 34.2523 24.0128L36.1052 14.7697C36.5631 12.4589 35.642 6.68994 35.642 6.68994C35.642 6.68994 33.0996 8.07426 30.0939 12.4642C29.2143 13.7287 28.5975 15.1569 28.2802 16.6641C27.9628 18.1714 27.9513 19.727 28.2464 21.2388Z" fill="#95A199"/>
<path opacity="0.5" d="M28.2464 21.2388C28.2464 21.2388 26.3988 16.6172 23.1669 13.3853C19.935 10.1534 6.75973 8.06888 6.75973 8.06888C8.88724 10.1209 10.8219 12.3639 12.5394 14.7697C15.5397 18.928 25.467 28.4028 25.467 28.4028C25.467 28.4028 20.6191 24.2445 16.2238 23.7812C11.8284 23.318 0.743033 25.6288 0.0643368 25.6288C-0.614359 25.6288 4.22269 27.4763 7.69158 29.0923C11.1605 30.7082 24.5566 32.0979 24.5566 32.0979C24.5566 32.0979 18.7823 33.7139 14.861 35.1036C10.9396 36.4933 7.22296 46.6522 7.22296 46.6522C7.22296 46.6522 12.3078 42.0306 16.6978 40.8779C21.0877 39.7252 27.3253 37.646 27.3253 37.646C27.3253 37.646 23.3985 42.036 22.4775 45.0416C21.5564 48.0473 22.2458 54.9743 22.2458 54.9743C22.2458 54.9743 24.325 48.5105 26.8674 45.9627C29.4099 43.4149 32.1731 39.0573 32.1731 39.0573C33.4529 41.1433 34.6111 43.3015 35.642 45.521C37.4896 49.4478 38.6423 55.2167 38.6423 55.2167C38.6423 55.2167 41.6479 48.7529 41.4163 45.521C41.1847 42.2892 37.7212 36.5095 37.7212 36.5095C37.7212 36.5095 40.032 34.8935 43.4955 36.2778C46.959 37.6622 52.9703 43.4419 52.9703 43.4419C52.9703 43.4419 51.5806 35.8146 49.2698 32.8143C46.959 29.8141 37.0263 28.8822 37.0263 28.8822C37.0263 28.8822 42.5744 25.6503 46.0379 24.9555C49.5014 24.2606 54.1176 25.8819 54.1176 25.8819C54.1176 25.8819 48.8065 18.4863 44.6482 18.0231C40.4898 17.5598 34.2523 24.0128 34.2523 24.0128L36.1052 14.7697C36.5631 12.4589 35.642 6.68994 35.642 6.68994C35.642 6.68994 33.0996 8.07426 30.0939 12.4642C29.2143 13.7287 28.5975 15.1569 28.2802 16.6641C27.9628 18.1714 27.9513 19.727 28.2464 21.2388Z" fill="black"/>
<path d="M32.798 14.2041C32.9596 13.5416 33.1373 12.8791 33.3366 12.2273" stroke="#2E353A" stroke-width="0.5" stroke-linecap="round" stroke-linejoin="round"/>
<path d="M17.3657 14.2041C19.5203 15.7823 22.2136 17.9746 23.6248 19.8545C26.1672 23.318 31.2521 30.7136 31.2521 30.7136C31.1064 25.7463 31.5001 20.7778 32.4263 15.8955" stroke="#2E353A" stroke-width="0.5" stroke-linecap="round" stroke-linejoin="round"/>
<path d="M14.1554 11.9956C14.1554 11.9956 14.8287 12.4265 15.836 13.1214" stroke="#2E353A" stroke-width="0.5" stroke-linecap="round" stroke-linejoin="round"/>
<path d="M31.252 30.7137C31.252 30.7137 40.0319 21.9338 43.727 21.2389C47.4222 20.544 50.6594 23.3181 50.6594 23.3181" stroke="#2E353A" stroke-width="0.5" stroke-linecap="round" stroke-linejoin="round"/>
<path d="M15.5612 38.0554C13.4066 39.4128 13.2289 40.21 13.2289 40.21" stroke="#2E353A" stroke-width="0.5" stroke-linecap="round" stroke-linejoin="round"/>
<path d="M50.4279 38.7989C50.4279 38.7989 49.0436 35.33 44.1903 33.714C39.3371 32.0981 31.7207 31.8665 31.7207 31.8665C31.7207 31.8665 21.0285 35.3677 17.1179 37.1937" stroke="#2E353A" stroke-width="0.5" stroke-linecap="round" stroke-linejoin="round"/>
<path d="M27.0452 30.5466C29.6307 31.3007 31.7152 31.8663 31.7152 31.8663" stroke="#2E353A" stroke-width="0.5" stroke-linecap="round" stroke-linejoin="round"/>
<path d="M10.7727 26.4421C13.2828 26.593 16.5147 26.9377 18.3138 27.708C19.7789 28.3382 22.666 29.2485 25.3916 30.0619" stroke="#2E353A" stroke-width="0.5" stroke-linecap="round" stroke-linejoin="round"/>
<path d="M7.2229 26.3237C7.2229 26.3237 8.06858 26.3237 9.31285 26.3722" stroke="#2E353A" stroke-width="0.5" stroke-linecap="round" stroke-linejoin="round"/>
<path d="M31.2521 33.2507C31.2521 33.2507 24.7883 42.9464 24.3197 45.268C24.0421 46.6376 23.8871 48.0292 23.8564 49.4263" stroke="#2E353A" stroke-width="0.5" stroke-linecap="round" stroke-linejoin="round"/>
<path d="M34.1284 36.3049C35.3727 37.9209 36.8647 40.0755 37.4896 41.7991C38.2169 43.9021 38.7576 46.0651 39.1055 48.2629" stroke="#2E353A" stroke-width="0.5" stroke-linecap="round" stroke-linejoin="round"/>
<path d="M32.1731 33.9456C32.1731 33.9456 32.7117 34.5165 33.4066 35.3945" stroke="#2E353A" stroke-width="0.5" stroke-linecap="round" stroke-linejoin="round"/>
<path d="M25.3108 23.2319C25.3108 23.2319 24.1204 18.384 24.8583 13.8863C25.5963 9.38862 35.0926 0 35.0926 0C34.5648 2.90756 34.3034 5.85721 34.3116 8.81227C34.3116 13.9402 31.753 27.4279 31.753 27.4279C31.753 27.4279 33.2666 21.2227 36.5631 18.2709C39.8596 15.3191 50.2178 10.7299 50.778 10.3366C51.3382 9.94343 48.478 14.2634 46.6089 17.603C44.7398 20.9426 34.6509 29.9003 34.6509 29.9003C34.6509 29.9003 40.2852 27.8427 44.2819 26.6684C48.2787 25.4942 57.2095 31.6024 57.2095 31.6024C57.2095 31.6024 50.3848 30.816 46.1457 32.4374C41.9065 34.0587 35.6259 36.0086 35.6259 36.0086C35.6259 36.0086 41.3786 37.2852 43.878 39.1866C46.3773 41.088 49.8677 47.137 49.8677 47.137C49.8677 47.137 44.4058 43.0918 40.8561 42.5101C37.3065 41.9283 32.4963 39.9838 32.4963 39.9838C32.6788 42.4238 32.9989 44.8516 33.4551 47.2555C34.2469 51.527 36.687 56.8919 36.687 56.8919C36.687 56.8919 30.4764 53.3907 28.7743 50.6275C27.0722 47.8642 26.5227 41.1527 26.5227 41.1527C26.5227 41.1527 23.7002 41.185 21.6749 44.3307C19.6496 47.4764 18.1575 55.6746 18.1575 55.6746C18.1575 55.6746 14.8395 48.6722 14.9634 44.9017C15.0872 41.1311 22.6175 34.5704 22.6175 34.5704C22.6175 34.5704 16.2292 35.1791 13.0081 36.6334C9.78696 38.0878 6.97522 42.1007 6.97522 42.1007C6.97522 42.1007 6.97522 32.9975 10.0886 30.1966C13.202 27.3956 22.0412 29.0116 22.0412 29.0116L15.1465 22.5855C13.4228 20.9695 10.805 15.7447 10.805 15.7447C10.805 15.7447 13.6814 15.3892 18.68 17.2044C20.133 17.7131 21.4687 18.5089 22.6079 19.5444C23.747 20.5798 24.6662 21.8339 25.3108 23.2319Z" fill="#95A199"/>
<path d="M17.5111 20.1724C16.9725 19.7253 16.4661 19.2944 15.9275 18.8743" stroke="#2E353A" stroke-width="0.5" stroke-linecap="round" stroke-linejoin="round"/>
<path d="M30.0454 11.1716C29.2105 13.714 28.2787 17.059 28.2571 19.4076C28.214 23.7167 28.3972 32.6744 28.3972 32.6744C25.6169 28.5558 22.3966 24.7521 18.7931 21.3305" stroke="#2E353A" stroke-width="0.5" stroke-linecap="round" stroke-linejoin="round"/>
<path d="M31.3706 7.50342C31.3706 7.50342 31.0689 8.24675 30.6595 9.39407" stroke="#2E353A" stroke-width="0.5" stroke-linecap="round" stroke-linejoin="round"/>
<path d="M28.3972 32.6743C28.3972 32.6743 16.1429 30.6652 12.7387 32.2596C9.33443 33.854 8.32178 37.98 8.32178 37.98" stroke="#2E353A" stroke-width="0.5" stroke-linecap="round" stroke-linejoin="round"/>
<path d="M45.4292 29.4855C47.9555 29.3454 48.5587 29.8571 48.5587 29.8571" stroke="#2E353A" stroke-width="0.5" stroke-linecap="round" stroke-linejoin="round"/>
<path d="M17.5381 50.4281C17.5381 50.4281 16.6439 46.803 19.6388 42.6608C22.6337 38.5186 28.6988 33.8862 28.6988 33.8862C28.6988 33.8862 39.4233 30.4874 43.6625 29.6956" stroke="#2E353A" stroke-width="0.5" stroke-linecap="round" stroke-linejoin="round"/>
<path d="M31.7206 30.0889C30.0616 32.2058 28.7042 33.8863 28.7042 33.8863" stroke="#2E353A" stroke-width="0.5" stroke-linecap="round" stroke-linejoin="round"/>
<path d="M42.542 17.2637C40.5921 18.8796 38.1682 21.0342 37.1556 22.6879C36.3314 24.056 34.5162 26.4584 32.7764 28.7261" stroke="#2E353A" stroke-width="0.5" stroke-linecap="round" stroke-linejoin="round"/>
<path d="M45.3538 15.093C45.3538 15.093 44.6697 15.5886 43.684 16.3535" stroke="#2E353A" stroke-width="0.5" stroke-linecap="round" stroke-linejoin="round"/>
<path d="M29.8784 34.748C29.8784 34.748 40.7968 38.8525 42.5151 40.4631C43.5397 41.4133 44.4771 42.4535 45.3161 43.5711" stroke="#2E353A" stroke-width="0.5" stroke-linecap="round" stroke-linejoin="round"/>
<path d="M29.3237 38.8958C29.2483 40.9318 29.286 43.5443 29.7977 45.3218C30.4327 47.4574 31.2565 49.5321 32.2593 51.5217" stroke="#2E353A" stroke-width="0.5" stroke-linecap="round" stroke-linejoin="round"/>
<path d="M29.5338 35.8254C29.5338 35.8254 29.4476 36.5903 29.3829 37.7215" stroke="#2E353A" stroke-width="0.5" stroke-linecap="round" stroke-linejoin="round"/>
</svg>
