<svg width="495" height="146" viewBox="0 0 495 146" fill="none" xmlns="http://www.w3.org/2000/svg">
<path d="M493.073 131.166C493.428 131.589 493.372 132.22 492.948 132.574L486.046 138.35C485.622 138.705 484.992 138.649 484.637 138.225C484.283 137.802 484.339 137.171 484.762 136.817L490.898 131.682L485.763 125.547C485.409 125.124 485.465 124.493 485.889 124.139C486.312 123.784 486.943 123.84 487.297 124.264L493.073 131.166ZM1.40571 1.08608C2.01833 1.35827 2.63048 1.62994 3.24217 1.90111L2.43164 3.72951C1.81943 3.45811 1.20677 3.18621 0.593643 2.91379L1.40571 1.08608ZM6.90685 3.52197C8.12659 4.06022 9.34453 4.59643 10.5607 5.1306L9.75638 6.96175C8.53917 6.42711 7.32019 5.89044 6.09941 5.35174L6.90685 3.52197ZM14.2038 6.72705C15.4169 7.25737 16.6282 7.78566 17.8378 8.31193L17.0398 10.1459C15.8292 9.61912 14.6168 9.09037 13.4027 8.55959L14.2038 6.72705ZM21.5191 9.90971C22.7444 10.4402 23.968 10.9687 25.1898 11.495L24.3985 13.3318C23.1756 12.805 21.9509 12.2761 20.7244 11.7451L21.5191 9.90971ZM28.8502 13.068C30.0686 13.5902 31.2854 14.1104 32.5004 14.6285L31.7159 16.4683C30.4997 15.9496 29.2818 15.429 28.0623 14.9062L28.8502 13.068ZM36.1757 16.1917C37.4063 16.7138 38.6353 17.2337 39.8626 17.7516L39.0851 19.5943C37.8566 19.0759 36.6265 18.5555 35.3946 18.0329L36.1757 16.1917ZM43.5396 19.2988C44.7636 19.8125 45.986 20.3241 47.2067 20.8336L46.4364 22.6793C45.2144 22.1693 43.9909 21.6572 42.7657 21.143L43.5396 19.2988ZM50.8795 22.3621C52.1152 22.875 53.3494 23.3857 54.5819 23.8943L53.819 25.7431C52.5852 25.234 51.3498 24.7227 50.1128 24.2093L50.8795 22.3621ZM58.2748 25.4138C59.5042 25.9181 60.732 26.4204 61.9583 26.9205L61.203 28.7724C59.9754 28.2718 58.7464 27.769 57.5157 27.2641L58.2748 25.4138ZM65.6328 28.4147C66.8735 28.9177 68.1126 29.4185 69.3501 29.9171L68.6027 31.7722C67.3638 31.273 66.1234 30.7717 64.8814 30.2682L65.6328 28.4147ZM73.0583 31.4066C74.2929 31.901 75.526 32.3932 76.7576 32.8832L76.0182 34.7415C74.7852 34.2509 73.5508 33.7582 72.3149 33.2633L73.0583 31.4066ZM80.4482 34.347C81.69 34.838 82.9304 35.3268 84.1693 35.8134L83.4382 37.675C82.1978 37.1878 80.956 36.6985 79.7128 36.2069L80.4482 34.347ZM87.8923 37.2709C89.1318 37.7545 90.37 38.236 91.6068 38.7153L90.8841 40.5802C89.6459 40.1003 88.4063 39.6183 87.1653 39.1341L87.8923 37.2709ZM95.3132 40.1468C96.5572 40.6257 97.7999 41.1023 99.0412 41.5767L98.3272 43.4449C97.0844 42.9699 95.8403 42.4927 94.5948 42.0133L95.3132 40.1468ZM102.778 43.0001C104.023 43.4723 105.266 43.9424 106.508 44.4103L105.803 46.2819C104.559 45.8134 103.315 45.3428 102.069 44.87L102.778 43.0001ZM110.23 45.8075C111.477 46.274 112.722 46.7382 113.967 47.2003L113.271 49.0753C112.025 48.6126 110.777 48.1478 109.529 47.6808L110.23 45.8075ZM117.718 48.5876C118.967 49.0478 120.215 49.5058 121.462 49.9617L120.775 51.8401C119.527 51.3836 118.277 50.925 117.026 50.4642L117.718 48.5876ZM125.199 51.3227C126.449 51.7765 127.699 52.228 128.948 52.6774L128.27 54.5593C127.02 54.1093 125.769 53.6571 124.516 53.2028L125.199 51.3227ZM132.712 54.0268C133.966 54.4743 135.218 54.9197 136.47 55.3629L135.802 57.2482C134.549 56.8044 133.295 56.3585 132.039 55.9103L132.712 54.0268ZM140.221 56.6858C141.477 57.1266 142.731 57.5652 143.984 58.0016L143.326 59.8903C142.071 59.4534 140.816 59.0142 139.559 58.5728L140.221 56.6858ZM147.761 59.3112C149.019 59.7455 150.276 60.1776 151.532 60.6076L150.885 62.4998C149.627 62.0693 148.368 61.6366 147.108 61.2017L147.761 59.3112ZM155.299 61.8908C156.559 62.3182 157.818 62.7434 159.076 63.1663L158.438 65.0621C157.178 64.6385 155.918 64.2127 154.656 63.7848L155.299 61.8908ZM162.865 64.4346C164.128 64.8552 165.389 65.2735 166.65 65.6897L166.024 67.5889C164.761 67.1722 163.498 66.7532 162.233 66.3321L162.865 64.4346ZM170.431 66.9316C171.696 67.3452 172.96 67.7565 174.223 68.1657L173.607 70.0684C172.342 69.6587 171.076 69.2467 169.809 68.8326L170.431 66.9316ZM178.025 69.3912C179.292 69.7975 180.558 70.2016 181.823 70.6035L181.218 72.5096C179.951 72.1071 178.683 71.7025 177.414 71.2956L178.025 69.3912ZM185.618 71.8027C186.888 72.202 188.157 72.5992 189.426 72.9941L188.831 74.9037C187.561 74.5082 186.289 74.1105 185.018 73.7106L185.618 71.8027ZM193.24 74.1754C194.511 74.567 195.781 74.9565 197.051 75.3437L196.468 77.2568C195.196 76.8689 193.924 76.4789 192.651 76.0868L193.24 74.1754ZM200.86 76.499C202.134 76.8837 203.408 77.2661 204.682 77.6465L204.11 79.5629C202.834 79.182 201.558 78.799 200.282 78.4138L200.86 76.499ZM208.509 78.7826C209.784 79.1591 211.058 79.5335 212.333 79.9058L211.772 81.8255C210.496 81.4527 209.219 81.0778 207.942 80.7007L208.509 78.7826ZM216.155 81.0161C217.434 81.3857 218.714 81.7531 219.992 82.1183L219.443 84.0414C218.162 83.6756 216.881 83.3076 215.6 82.9375L216.155 81.0161ZM223.83 83.2083C225.11 83.5695 226.389 83.9286 227.667 84.2855L227.13 86.2119C225.849 85.8544 224.568 85.4948 223.287 85.1331L223.83 83.2083ZM231.504 85.3503C232.788 85.7043 234.071 86.0562 235.355 86.4061L234.828 88.3357C233.543 87.9853 232.258 87.6328 230.973 87.2783L231.504 85.3503ZM239.204 87.4492C240.488 87.7948 241.771 88.1384 243.054 88.4798L242.54 90.4126C241.255 90.0706 239.969 89.7266 238.684 89.3804L239.204 87.4492ZM246.906 89.4985C248.193 89.8367 249.48 90.1728 250.767 90.5068L250.265 92.4427C248.976 92.1081 247.687 91.7715 246.398 91.4328L246.906 89.4985ZM254.628 91.5026C255.916 91.8325 257.203 92.1604 258.491 92.4862L258 94.4251C256.711 94.0988 255.421 93.7704 254.132 93.44L254.628 91.5026ZM262.357 93.458C263.647 93.7802 264.938 94.1003 266.228 94.4185L265.75 96.3603C264.457 96.0417 263.165 95.7211 261.873 95.3984L262.357 93.458ZM270.101 95.3668C271.393 95.6809 272.684 95.9929 273.976 96.303L273.51 98.2478C272.216 97.9372 270.922 97.6247 269.629 97.3101L270.101 95.3668ZM277.855 97.2274C279.148 97.5336 280.442 97.8378 281.736 98.14L281.281 100.088C279.985 99.7849 278.689 99.4803 277.394 99.1736L277.855 97.2274ZM285.62 99.0407C286.916 99.339 288.212 99.6353 289.508 99.9296L289.065 101.88C287.767 101.585 286.469 101.288 285.172 100.99L285.62 99.0407ZM293.397 100.806C294.693 101.096 295.99 101.385 297.288 101.671L296.857 103.624C295.558 103.337 294.258 103.049 292.96 102.758L293.397 100.806ZM301.184 102.524C302.483 102.807 303.783 103.088 305.084 103.366L304.665 105.322C303.362 105.043 302.06 104.762 300.759 104.479L301.184 102.524ZM308.981 104.195C310.281 104.47 311.581 104.742 312.882 105.013L312.475 106.971C311.172 106.7 309.869 106.427 308.568 106.152L308.981 104.195ZM316.789 105.819C318.091 106.086 319.395 106.351 320.699 106.614L320.303 108.574C318.997 108.311 317.692 108.045 316.388 107.778L316.789 105.819ZM324.605 107.396C325.907 107.654 327.211 107.911 328.516 108.166L328.132 110.129C326.825 109.874 325.52 109.616 324.215 109.357L324.605 107.396ZM332.433 108.926C333.738 109.177 335.044 109.427 336.351 109.674L335.979 111.639C334.67 111.391 333.362 111.142 332.055 110.89L332.433 108.926ZM340.265 110.41C341.571 110.653 342.878 110.895 344.186 111.134L343.825 113.102C342.515 112.861 341.207 112.62 339.899 112.376L340.265 110.41ZM348.114 111.849C349.421 112.085 350.729 112.319 352.039 112.551L351.689 114.52C350.378 114.287 349.068 114.053 347.759 113.817L348.114 111.849ZM355.961 113.241C357.269 113.469 358.579 113.696 359.89 113.921L359.552 115.892C358.239 115.667 356.927 115.44 355.617 115.211L355.961 113.241ZM363.827 114.59C365.136 114.811 366.446 115.03 367.758 115.247L367.431 117.22C366.118 117.003 364.806 116.783 363.495 116.562L363.827 114.59ZM371.687 115.893C372.999 116.106 374.311 116.318 375.625 116.529L375.309 118.504C373.993 118.293 372.679 118.081 371.366 117.867L371.687 115.893ZM379.572 117.155C380.882 117.361 382.194 117.565 383.507 117.768L383.201 119.745C381.887 119.542 380.573 119.337 379.261 119.131L379.572 117.155ZM387.443 118.371C388.757 118.57 390.072 118.768 391.389 118.964L391.094 120.942C389.775 120.746 388.458 120.548 387.143 120.348L387.443 118.371ZM395.344 119.548C396.655 119.739 397.968 119.93 399.282 120.118L398.998 122.098C397.682 121.909 396.367 121.719 395.054 121.527L395.344 119.548ZM403.225 120.679C404.541 120.865 405.858 121.049 407.177 121.231L406.903 123.212C405.582 123.03 404.263 122.845 402.946 122.66L403.225 120.679ZM411.14 121.774C412.452 121.952 413.766 122.129 415.082 122.304L414.818 124.286C413.501 124.111 412.185 123.934 410.871 123.756L411.14 121.774ZM419.03 122.825C420.348 122.997 421.667 123.167 422.989 123.337L422.734 125.32C421.412 125.151 420.09 124.98 418.771 124.808L419.03 122.825ZM426.958 123.84C428.272 124.005 429.587 124.169 430.904 124.331L430.66 126.316C429.341 126.153 428.024 125.99 426.709 125.824L426.958 123.84ZM434.856 124.813C436.176 124.972 437.497 125.13 438.82 125.287L438.585 127.273C437.26 127.116 435.937 126.958 434.617 126.798L434.856 124.813ZM442.795 125.752C444.11 125.905 445.427 126.056 446.746 126.206L446.52 128.193C445.2 128.043 443.881 127.892 442.565 127.739L442.795 125.752ZM450.701 126.651C452.022 126.798 453.344 126.943 454.669 127.088L454.452 129.076C453.126 128.931 451.802 128.785 450.48 128.638L450.701 126.651ZM458.649 127.517C459.966 127.658 461.284 127.797 462.605 127.935L462.397 129.924C461.075 129.786 459.755 129.647 458.437 129.506L458.649 127.517ZM466.563 128.345C467.884 128.48 469.208 128.614 470.534 128.747L470.334 130.737C469.007 130.604 467.682 130.47 466.359 130.334L466.563 128.345ZM474.517 129.142C475.836 129.271 477.157 129.399 478.48 129.526L478.289 131.517C476.964 131.39 475.642 131.262 474.322 131.132L474.517 129.142ZM482.439 129.902C483.761 130.026 485.085 130.149 486.412 130.271L486.229 132.263C484.901 132.141 483.576 132.018 482.252 131.893L482.439 129.902ZM490.397 130.633C491.063 130.693 491.728 130.752 492.395 130.811L492.218 132.804C491.551 132.744 490.884 132.685 490.218 132.625L490.397 130.633ZM493.84 130.524C494.549 131.371 494.437 132.632 493.59 133.341L479.786 144.893C478.938 145.602 477.677 145.49 476.968 144.643C476.259 143.796 476.371 142.534 477.219 141.826L489.489 131.557L479.221 119.287C478.512 118.44 478.624 117.178 479.471 116.47C480.318 115.761 481.579 115.873 482.288 116.72L493.84 130.524ZM1.81175 0.17222C2.42411 0.444297 3.036 0.71586 3.64744 0.986912L2.02637 4.64371C1.41391 4.3722 0.800986 4.10018 0.187607 3.82765L1.81175 0.17222ZM7.31057 2.60709C8.52979 3.14511 9.7472 3.68108 10.9628 4.21503L9.35422 7.87732C8.13649 7.34245 6.91699 6.80556 5.69569 6.26662L7.31057 2.60709ZM14.6044 5.81078C15.8169 6.34087 17.0277 6.86893 18.2367 7.39497L16.6409 11.0628C15.4297 10.5359 14.2168 10.0069 13.0021 9.47585L14.6044 5.81078ZM21.9164 8.99203C23.1412 9.5223 24.3642 10.0505 25.5855 10.5766L24.0029 14.2502C22.7794 13.7232 21.5541 13.194 20.3271 12.6628L21.9164 8.99203ZM29.2442 12.1488C30.462 12.6709 31.6782 13.1908 32.8927 13.7087L31.3236 17.3881C30.1069 16.8692 28.8884 16.3483 27.6683 15.8253L29.2442 12.1488ZM36.5662 15.2711C37.7963 15.7929 39.0247 16.3126 40.2514 16.8302L38.6964 20.5156C37.4673 19.997 36.2365 19.4763 35.0041 18.9535L36.5662 15.2711ZM43.9266 18.3768C45.15 18.8902 46.3717 19.4015 47.5919 19.9107L46.0513 23.6021C44.8287 23.0919 43.6045 22.5795 42.3787 22.0651L43.9266 18.3768ZM51.2628 21.4385C52.4979 21.9511 53.7315 22.4616 54.9634 22.97L53.4376 26.6675C52.2031 26.1581 50.9671 25.6466 49.7295 25.133L51.2628 21.4385ZM58.6544 24.4886C59.8831 24.9927 61.1103 25.4947 62.3359 25.9946L60.8254 29.6984C59.5972 29.1975 58.3674 28.6944 57.1361 28.1893L58.6544 24.4886ZM66.0086 27.488C67.2485 27.9907 68.487 28.4912 69.7239 28.9896L68.229 32.6997C66.9894 32.2003 65.7483 31.6987 64.5057 31.1949L66.0086 27.488ZM73.4301 30.4783C74.664 30.9723 75.8964 31.4643 77.1273 31.9541L75.6485 35.6707C74.4148 35.1798 73.1797 34.6868 71.9431 34.1916L73.4301 30.4783ZM80.8158 33.4171C82.057 33.9078 83.2967 34.3963 84.5349 34.8827L83.0726 38.6058C81.8315 38.1183 80.5891 37.6287 79.3452 37.1369L80.8158 33.4171ZM88.2558 36.3393C89.4946 36.8227 90.7321 37.3039 91.9682 37.7829L90.5228 41.5126C89.2838 41.0325 88.0435 40.5502 86.8018 40.0657L88.2558 36.3393ZM95.6724 39.2136C96.9157 39.6921 98.1576 40.1685 99.3982 40.6427L97.9701 44.379C96.7266 43.9037 95.4818 43.4263 94.2356 42.9466L95.6724 39.2136ZM103.133 42.0652C104.377 42.5371 105.619 43.0069 106.86 43.4746L105.45 47.2177C104.206 46.7489 102.961 46.278 101.714 45.8049L103.133 42.0652ZM110.58 44.8709C111.826 45.3371 113.071 45.801 114.315 46.2628L112.923 50.0127C111.676 49.5498 110.428 49.0847 109.179 48.6174L110.58 44.8709ZM118.064 47.6492C119.312 48.1092 120.559 48.5669 121.805 49.0225L120.431 52.7793C119.182 52.3226 117.932 51.8637 116.681 51.4026L118.064 47.6492ZM125.54 50.3826C126.79 50.8361 128.039 51.2874 129.286 51.7365L127.932 55.5002C126.681 55.0499 125.429 54.5975 124.175 54.1428L125.54 50.3826ZM133.048 53.085C134.301 53.5323 135.553 53.9773 136.803 54.4202L135.468 58.1908C134.214 57.7468 132.959 57.3005 131.703 56.8521L133.048 53.085ZM140.553 55.7423C141.807 56.1828 143.06 56.6211 144.313 57.0572L142.997 60.8347C141.742 60.3975 140.485 59.958 139.227 59.5164L140.553 55.7423ZM148.087 58.3659C149.345 58.8 150.601 59.2318 151.856 59.6614L150.561 63.4459C149.302 63.0151 148.043 62.5821 146.782 62.1469L148.087 58.3659ZM155.62 60.9438C156.879 61.3709 158.137 61.7958 159.394 62.2185L158.12 66.01C156.859 65.5861 155.597 65.16 154.335 64.7318L155.62 60.9438ZM163.181 63.4859C164.443 63.9061 165.704 64.3242 166.964 64.7401L165.71 68.5385C164.447 68.1215 163.182 67.7023 161.917 67.2808L163.181 63.4859ZM170.742 65.9811C172.005 66.3944 173.269 66.8055 174.531 67.2144L173.299 71.0198C172.033 70.6097 170.766 70.1975 169.498 69.783L170.742 65.9811ZM178.331 68.439C179.596 68.845 180.861 69.2488 182.126 69.6504L180.915 73.4627C179.647 73.0599 178.378 72.655 177.109 72.2478L178.331 68.439ZM185.918 70.8488C187.187 71.2478 188.455 71.6446 189.723 72.0393L188.534 75.8585C187.262 75.4627 185.99 75.0647 184.718 74.6645L185.918 70.8488ZM193.534 73.2198C194.804 73.6111 196.074 74.0002 197.343 74.3872L196.176 78.2133C194.903 77.8252 193.63 77.4349 192.356 77.0424L193.534 73.2198ZM201.148 75.5417C202.422 75.926 203.695 76.3082 204.968 76.6882L203.824 80.5211C202.547 80.1399 201.27 79.7566 199.993 79.3711L201.148 75.5417ZM208.792 77.8235C210.066 78.1998 211.34 78.5739 212.613 78.9459L211.492 82.7854C210.214 82.4123 208.937 82.0371 207.659 81.6597L208.792 77.8235ZM216.433 80.0554C217.711 80.4247 218.989 80.7918 220.267 81.1568L219.168 85.003C217.887 84.6369 216.605 84.2686 215.323 83.8983L216.433 80.0554ZM224.102 82.2459C225.38 82.6069 226.658 82.9657 227.936 83.3224L226.861 87.1751C225.579 86.8173 224.297 86.4574 223.015 86.0954L224.102 82.2459ZM231.77 84.3863C233.053 84.7401 234.335 85.0917 235.618 85.4413L234.566 89.3005C233.279 88.9498 231.993 88.5971 230.707 88.2422L231.77 84.3863ZM239.464 86.4836C240.747 86.829 242.029 87.1723 243.311 87.5134L242.283 91.379C240.996 91.0367 239.71 90.6924 238.424 90.346L239.464 86.4836ZM247.161 88.5314C248.446 88.8693 249.732 89.2051 251.018 89.5389L250.013 93.4106C248.723 93.0758 247.434 92.7389 246.144 92.4L247.161 88.5314ZM254.877 90.534C256.163 90.8636 257.45 91.1912 258.736 91.5167L257.755 95.3945C256.464 95.068 255.174 94.7394 253.884 94.4087L254.877 90.534ZM262.599 92.4878C263.889 92.8097 265.178 93.1296 266.468 93.4475L265.51 97.3313C264.217 97.0124 262.923 96.6915 261.63 96.3686L262.599 92.4878ZM270.338 94.3951C271.628 94.7089 272.919 95.0208 274.21 95.3306L273.276 99.2202C271.981 98.9094 270.687 98.5966 269.392 98.2818L270.338 94.3951ZM278.085 96.2543C279.377 96.5602 280.67 96.8642 281.963 97.1662L281.054 101.061C279.757 100.758 278.46 100.454 277.164 100.147L278.085 96.2543ZM285.845 98.0662C287.139 98.3642 288.434 98.6603 289.729 98.9544L288.844 102.855C287.544 102.56 286.246 102.263 284.947 101.964L285.845 98.0662ZM293.615 99.8304C294.911 100.12 296.207 100.408 297.504 100.695L296.642 104.601C295.341 104.314 294.041 104.025 292.741 103.734L293.615 99.8304ZM301.396 101.547C302.695 101.83 303.993 102.11 305.293 102.388L304.455 106.3C303.151 106.02 301.849 105.739 300.546 105.456L301.396 101.547ZM309.187 103.217C310.486 103.491 311.786 103.763 313.086 104.034L312.272 107.95C310.967 107.679 309.664 107.405 308.361 107.13L309.187 103.217ZM316.99 104.839C318.291 105.106 319.593 105.371 320.897 105.634L320.106 109.555C318.799 109.291 317.492 109.025 316.187 108.758L316.99 104.839ZM324.799 106.415C326.101 106.673 327.404 106.93 328.708 107.185L327.94 111.111C326.633 110.855 325.326 110.597 324.02 110.338L324.799 106.415ZM332.622 107.944C333.926 108.195 335.231 108.444 336.538 108.692L335.793 112.622C334.483 112.374 333.174 112.124 331.866 111.872L332.622 107.944ZM340.449 109.427C341.754 109.67 343.059 109.911 344.366 110.151L343.645 114.085C342.334 113.845 341.024 113.603 339.716 113.359L340.449 109.427ZM348.291 110.865C349.597 111.1 350.905 111.334 352.213 111.566L351.515 115.505C350.202 115.272 348.891 115.037 347.581 114.801L348.291 110.865ZM356.132 112.256C357.44 112.484 358.749 112.71 360.059 112.935L359.383 116.877C358.069 116.652 356.756 116.425 355.445 116.196L356.132 112.256ZM363.994 113.604C365.302 113.825 366.611 114.044 367.921 114.261L367.267 118.207C365.953 117.989 364.64 117.77 363.329 117.548L363.994 113.604ZM371.848 114.906C373.158 115.119 374.47 115.331 375.783 115.541L375.151 119.491C373.834 119.28 372.519 119.068 371.205 118.854L371.848 114.906ZM379.727 116.167C381.036 116.373 382.347 116.577 383.659 116.78L383.049 120.733C381.733 120.53 380.419 120.325 379.106 120.118L379.727 116.167ZM387.593 117.382C388.906 117.581 390.22 117.779 391.536 117.975L390.947 121.931C389.627 121.734 388.309 121.536 386.993 121.337L387.593 117.382ZM395.488 118.558C396.799 118.75 398.111 118.94 399.424 119.129L398.856 123.088C397.539 122.899 396.223 122.708 394.909 122.516L395.488 118.558ZM403.364 119.689C404.679 119.874 405.996 120.058 407.314 120.241L406.766 124.203C405.445 124.02 404.124 123.836 402.806 123.65L403.364 119.689ZM411.274 120.783C412.586 120.961 413.899 121.138 415.214 121.313L414.686 125.278C413.368 125.102 412.051 124.925 410.737 124.747L411.274 120.783ZM419.16 121.833C420.476 122.005 421.795 122.176 423.116 122.345L422.607 126.312C421.284 126.143 419.962 125.972 418.642 125.799L419.16 121.833ZM427.083 122.848C428.395 123.013 429.71 123.176 431.026 123.338L430.537 127.308C429.218 127.146 427.9 126.982 426.584 126.817L427.083 122.848ZM434.976 123.82C436.295 123.979 437.615 124.137 438.938 124.293L438.467 128.266C437.142 128.109 435.818 127.951 434.497 127.791L434.976 123.82ZM442.911 124.759C444.225 124.911 445.541 125.062 446.858 125.212L446.407 129.186C445.086 129.036 443.767 128.885 442.45 128.732L442.911 124.759ZM450.812 125.657C452.132 125.804 453.454 125.949 454.777 126.094L454.344 130.07C453.017 129.925 451.692 129.779 450.369 129.632L450.812 125.657ZM458.755 126.523C460.071 126.663 461.389 126.803 462.709 126.941L462.293 130.919C460.97 130.781 459.649 130.641 458.331 130.5L458.755 126.523ZM466.665 127.35C467.985 127.485 469.308 127.619 470.633 127.752L470.234 131.732C468.907 131.599 467.581 131.465 466.257 131.329L466.665 127.35ZM474.615 128.147C475.933 128.276 477.253 128.404 478.576 128.531L478.193 132.512C476.868 132.385 475.545 132.257 474.224 132.127L474.615 128.147ZM482.533 128.906C483.854 129.031 485.178 129.153 486.503 129.275L486.137 133.258C484.809 133.136 483.483 133.013 482.159 132.889L482.533 128.906ZM490.487 129.637C491.152 129.697 491.817 129.756 492.483 129.815L492.129 133.8C491.462 133.74 490.795 133.681 490.129 133.621L490.487 129.637Z" fill="#282828"/>
</svg>
