<svg width="43" height="43" viewBox="0 0 43 43" fill="none" xmlns="http://www.w3.org/2000/svg">
<path d="M14.8991 29.6292C14.3474 24.0112 12.1407 20.9213 5.79632 20.3596C1.2613 24.1784 -0.0545793 23.835 0.00366521 33H12.1407C13.4351 32.8913 14.8991 32.7191 14.8991 32.4382V29.6292Z" fill="white"/>
<path d="M14.8972 11.3708C14.3456 16.9888 12.1388 20.0787 5.79449 20.6404C1.25946 16.8216 -0.0564103 17.165 0.00183416 8H12.1388C13.4333 8.10867 14.8972 8.2809 14.8972 8.5618V11.3708Z" fill="white"/>
<path d="M14.8973 29.6291L14.3456 32.719C20.1382 31.8763 24 26.5392 24 20.3594C18.2074 20.9212 15.7248 22.6066 14.8973 29.6291Z" fill="white"/>
<path d="M14.8973 11.3709L14.3456 8.28101C20.1382 9.1237 24 14.4608 24 20.6406C18.2074 20.0788 15.7248 18.3934 14.8973 11.3709Z" fill="white"/>
<line x1="42.2884" y1="0.14553" x2="29.4784" y2="42.2514" stroke="#333233"/>
<line x1="42.2884" y1="0.14553" x2="29.4784" y2="42.2514" stroke="#333233"/>
</svg>
