<svg width="20" height="21" viewBox="0 0 20 21" fill="none" xmlns="http://www.w3.org/2000/svg">
<path d="M12.4158 18.0244C11.956 13.3427 10.1171 10.7678 4.83015 10.2997C1.05096 13.4821 -0.0456048 13.1959 0.00293227 20.8334H10.1171C11.1958 20.7428 12.4158 20.5993 12.4158 20.3652V18.0244Z" fill="white"/>
<path d="M12.4144 2.80899C11.9546 7.49064 10.1157 10.0655 4.82874 10.5337C1.04955 7.35132 -0.0470086 7.63751 0.00152847 0H10.1157C11.1944 0.0905553 12.4144 0.234082 12.4144 0.468165V2.80899Z" fill="white"/>
<path d="M12.4145 18.0243L11.9548 20.5992C16.782 19.897 20.0001 15.4494 20.0001 10.2996C15.1729 10.7678 13.1041 12.1723 12.4145 18.0243Z" fill="white"/>
<path d="M12.4145 2.80904L11.9548 0.234131C16.782 0.936378 20.0001 5.38394 20.0001 10.5338C15.1729 10.0656 13.1041 8.6611 12.4145 2.80904Z" fill="white"/>
</svg>
