<svg width="237" height="135" viewBox="0 0 237 135" fill="none" xmlns="http://www.w3.org/2000/svg">
<path d="M23.9542 11.9634C23.7731 11.2923 23.5067 10.701 23.1552 10.1896C22.8036 9.66761 22.3722 9.2255 21.8608 8.86328C21.3494 8.50107 20.7635 8.2294 20.103 8.04829C19.4425 7.85653 18.718 7.76065 17.9297 7.76065C16.3423 7.76065 14.968 8.14417 13.8068 8.91122C12.6562 9.67827 11.7667 10.7969 11.1381 12.267C10.5096 13.7266 10.1953 15.5004 10.1953 17.5884C10.1953 19.6871 10.4989 21.4769 11.1062 22.9577C11.7134 24.4386 12.5923 25.5678 13.7429 26.3455C14.8935 27.1232 16.2891 27.5121 17.9297 27.5121C19.3786 27.5121 20.6037 27.2777 21.6051 26.8089C22.6172 26.3295 23.3842 25.6531 23.9062 24.7795C24.4283 23.9059 24.6893 22.8778 24.6893 21.6953L26.1594 21.8711H18.2013V16.1023H32.3118V20.4329C32.3118 23.3626 31.6886 25.8714 30.4421 27.9595C29.2063 30.0476 27.5018 31.6509 25.3285 32.7695C23.1658 33.8881 20.6783 34.4474 17.8658 34.4474C14.7443 34.4474 12.0011 33.771 9.63601 32.418C7.27095 31.065 5.42791 29.1367 4.10689 26.6332C2.78587 24.119 2.12536 21.136 2.12536 17.6843C2.12536 14.9996 2.52486 12.6186 3.32386 10.5412C4.12287 8.45312 5.23615 6.68466 6.66371 5.23579C8.10192 3.78693 9.76385 2.68963 11.6495 1.94389C13.5458 1.19815 15.5859 0.825283 17.7699 0.825283C19.6662 0.825283 21.4293 1.09695 23.0593 1.64027C24.6999 2.18359 26.1488 2.95064 27.4059 3.94141C28.6737 4.93217 29.7017 6.10938 30.4901 7.47301C31.2784 8.83665 31.7685 10.3335 31.9602 11.9634H23.9542ZM48.4477 34.4634C45.8802 34.4634 43.6643 33.9574 41.8 32.9453C39.9463 31.9226 38.5187 30.4684 37.5173 28.5827C36.5265 26.6864 36.0312 24.4332 36.0312 21.8232C36.0312 19.2876 36.5319 17.0717 37.5333 15.1754C38.5347 13.2685 39.9463 11.7876 41.768 10.733C43.5898 9.66761 45.7364 9.13494 48.208 9.13494C49.9552 9.13494 51.5532 9.4066 53.002 9.94993C54.4509 10.4933 55.7027 11.2976 56.7574 12.3629C57.8121 13.4283 58.6324 14.744 59.2183 16.31C59.8042 17.8654 60.0972 19.6499 60.0972 21.6634V23.6129H38.7638V19.0746H52.8263C52.8156 18.2436 52.6185 17.5032 52.235 16.8533C51.8515 16.2035 51.3241 15.6974 50.653 15.3352C49.9925 14.9624 49.2307 14.7759 48.3678 14.7759C47.4942 14.7759 46.7112 14.973 46.0187 15.3672C45.3263 15.7507 44.7776 16.2781 44.3728 16.9492C43.968 17.6097 43.7549 18.3608 43.7336 19.2024V23.8207C43.7336 24.8221 43.9307 25.701 44.3248 26.4574C44.719 27.2031 45.2783 27.7837 46.0028 28.1992C46.7272 28.6147 47.5901 28.8224 48.5915 28.8224C49.284 28.8224 49.9126 28.7266 50.4772 28.5348C51.0418 28.343 51.5265 28.0607 51.9314 27.6879C52.3362 27.315 52.6398 26.8569 52.8422 26.3136L60.0173 26.5213C59.719 28.13 59.0638 29.5309 58.0518 30.7241C57.0503 31.9066 55.7346 32.8281 54.1047 33.4886C52.4747 34.1385 50.589 34.4634 48.4477 34.4634ZM77.943 9.45454V15.2074H62.4583V9.45454H77.943ZM65.7022 3.57386H73.5165V26.2816C73.5165 26.761 73.5911 27.1499 73.7402 27.4482C73.9 27.7358 74.1291 27.9435 74.4274 28.0714C74.7257 28.1886 75.0826 28.2472 75.498 28.2472C75.7963 28.2472 76.1106 28.2205 76.4409 28.1673C76.7818 28.1033 77.0375 28.0501 77.2079 28.0075L78.3904 33.6484C78.0176 33.755 77.4902 33.8881 76.8084 34.0479C76.1373 34.2077 75.3329 34.3089 74.3954 34.3516C72.563 34.4368 70.9917 34.2237 69.6813 33.7124C68.3816 33.1903 67.3855 32.3807 66.693 31.2834C66.0112 30.1861 65.6809 28.8065 65.7022 27.1445V3.57386ZM7.06321 134L0.671165 109.455H8.5174L11.8253 125.179H12.033L15.5806 109.455H23.2351L26.8786 125.067H27.0863L30.2983 109.455H38.1445L31.7365 134H23.3789L19.5437 119.698H19.272L15.4368 134H7.06321ZM41.2806 134V109.455H49.0949V134H41.2806ZM45.1958 106.594C44.0985 106.594 43.1556 106.232 42.3673 105.507C41.5789 104.772 41.1847 103.888 41.1847 102.855C41.1847 101.832 41.5789 100.958 42.3673 100.234C43.1556 99.4989 44.0985 99.1314 45.1958 99.1314C46.3037 99.1314 47.2465 99.4989 48.0242 100.234C48.8126 100.958 49.2068 101.832 49.2068 102.855C49.2068 103.888 48.8126 104.772 48.0242 105.507C47.2465 106.232 46.3037 106.594 45.1958 106.594ZM67.9235 109.455V115.207H52.4387V109.455H67.9235ZM55.6827 103.574H63.497V126.282C63.497 126.761 63.5716 127.15 63.7207 127.448C63.8805 127.736 64.1096 127.944 64.4078 128.071C64.7061 128.189 65.063 128.247 65.4785 128.247C65.7768 128.247 66.0911 128.221 66.4213 128.167C66.7623 128.103 67.0179 128.05 67.1884 128.007L68.3709 133.648C67.998 133.755 67.4707 133.888 66.7889 134.048C66.1177 134.208 65.3134 134.309 64.3759 134.352C62.5435 134.437 60.9721 134.224 59.6618 133.712C58.362 133.19 57.3659 132.381 56.6735 131.283C55.9917 130.186 55.6614 128.806 55.6827 127.145V103.574ZM80.2521 120.001V134H72.4379V101.273H79.9964V113.961H80.2681C80.8221 112.448 81.7276 111.266 82.9847 110.413C84.2525 109.561 85.8026 109.135 87.6349 109.135C89.3608 109.135 90.8629 109.518 92.1413 110.286C93.4197 111.042 94.4105 112.113 95.1136 113.498C95.8274 114.882 96.179 116.502 96.1683 118.355V134H88.354V119.89C88.3647 118.526 88.0238 117.461 87.3313 116.694C86.6389 115.926 85.6641 115.543 84.407 115.543C83.5866 115.543 82.8622 115.724 82.2337 116.086C81.6158 116.438 81.131 116.944 80.7795 117.604C80.4386 118.265 80.2628 119.064 80.2521 120.001ZM126.551 123.405V109.455H134.349V134H126.902V129.43H126.646C126.103 130.932 125.176 132.125 123.866 133.009C122.566 133.883 120.995 134.32 119.152 134.32C117.479 134.32 116.009 133.936 114.741 133.169C113.473 132.402 112.488 131.331 111.785 129.957C111.082 128.572 110.725 126.953 110.714 125.099V109.455H118.528V123.565C118.539 124.897 118.891 125.946 119.583 126.713C120.276 127.48 121.218 127.864 122.412 127.864C123.189 127.864 123.887 127.693 124.505 127.352C125.134 127.001 125.629 126.495 125.991 125.834C126.364 125.163 126.551 124.353 126.551 123.405ZM160.752 116.949L153.577 117.141C153.502 116.63 153.3 116.177 152.97 115.783C152.639 115.378 152.208 115.064 151.675 114.84C151.153 114.605 150.546 114.488 149.854 114.488C148.948 114.488 148.176 114.669 147.536 115.032C146.908 115.394 146.599 115.884 146.61 116.502C146.599 116.981 146.791 117.397 147.185 117.748C147.59 118.1 148.309 118.382 149.342 118.595L154.072 119.49C156.523 119.959 158.344 120.737 159.537 121.823C160.741 122.91 161.349 124.348 161.359 126.138C161.349 127.821 160.848 129.286 159.857 130.532C158.877 131.779 157.535 132.748 155.83 133.441C154.126 134.123 152.176 134.463 149.981 134.463C146.476 134.463 143.712 133.744 141.688 132.306C139.674 130.857 138.524 128.918 138.236 126.489L145.954 126.298C146.125 127.192 146.567 127.874 147.281 128.343C147.994 128.812 148.905 129.046 150.013 129.046C151.015 129.046 151.83 128.86 152.458 128.487C153.087 128.114 153.406 127.619 153.417 127.001C153.406 126.447 153.161 126.005 152.682 125.674C152.203 125.333 151.452 125.067 150.429 124.875L146.146 124.06C143.685 123.613 141.853 122.787 140.649 121.583C139.445 120.369 138.849 118.824 138.859 116.949C138.849 115.309 139.285 113.908 140.17 112.746C141.054 111.575 142.311 110.68 143.941 110.062C145.571 109.444 147.494 109.135 149.71 109.135C153.034 109.135 155.654 109.833 157.572 111.228C159.49 112.613 160.55 114.52 160.752 116.949Z" fill="white"/>
<path d="M13.9347 84.4634C11.3459 84.4634 9.12465 83.9308 7.27095 82.8654C5.42791 81.8001 4.01101 80.3192 3.02024 78.4229C2.02947 76.516 1.53409 74.3107 1.53409 71.8072C1.53409 69.293 2.02947 67.0877 3.02024 65.1914C4.02166 63.2844 5.44389 61.7983 7.28693 60.733C9.14063 59.6676 11.3512 59.1349 13.9187 59.1349C16.1879 59.1349 18.1641 59.5451 19.8473 60.3654C21.5412 61.1857 22.8622 62.3469 23.8104 63.8491C24.7692 65.3406 25.2752 67.093 25.3285 69.1065H18.0256C17.8764 67.8494 17.4503 66.864 16.7472 66.1502C16.0547 65.4364 15.1491 65.0795 14.0305 65.0795C13.125 65.0795 12.3313 65.3352 11.6495 65.8466C10.9677 66.3473 10.435 67.093 10.0515 68.0838C9.67862 69.0639 9.49219 70.2784 9.49219 71.7273C9.49219 73.1761 9.67862 74.4013 10.0515 75.4027C10.435 76.3935 10.9677 77.1445 11.6495 77.6559C12.3313 78.1566 13.125 78.407 14.0305 78.407C14.755 78.407 15.3942 78.2525 15.9482 77.9435C16.5128 77.6346 16.9762 77.1818 17.3384 76.5852C17.7006 75.978 17.9297 75.2429 18.0256 74.38H25.3285C25.2539 76.4041 24.7479 78.1726 23.8104 79.6854C22.8835 81.1982 21.5785 82.3754 19.8952 83.217C18.2227 84.0479 16.2358 84.4634 13.9347 84.4634ZM40.7852 84.4634C38.2071 84.4634 35.9912 83.9361 34.1375 82.8814C32.2945 81.8161 30.8722 80.3352 29.8708 78.4389C28.8801 76.532 28.3847 74.3214 28.3847 71.8072C28.3847 69.2823 28.8801 67.0717 29.8708 65.1754C30.8722 63.2685 32.2945 61.7876 34.1375 60.733C35.9912 59.6676 38.2071 59.1349 40.7852 59.1349C43.3634 59.1349 45.574 59.6676 47.417 60.733C49.2707 61.7876 50.6929 63.2685 51.6837 65.1754C52.6851 67.0717 53.1858 69.2823 53.1858 71.8072C53.1858 74.3214 52.6851 76.532 51.6837 78.4389C50.6929 80.3352 49.2707 81.8161 47.417 82.8814C45.574 83.9361 43.3634 84.4634 40.7852 84.4634ZM40.8332 78.5668C41.7707 78.5668 42.5644 78.2791 43.2142 77.7038C43.8641 77.1286 44.3595 76.3295 44.7004 75.3068C45.0519 74.2841 45.2277 73.1016 45.2277 71.7592C45.2277 70.3956 45.0519 69.2024 44.7004 68.1797C44.3595 67.157 43.8641 66.358 43.2142 65.7827C42.5644 65.2074 41.7707 64.9197 40.8332 64.9197C39.8637 64.9197 39.0434 65.2074 38.3722 65.7827C37.7117 66.358 37.2057 67.157 36.8541 68.1797C36.5132 69.2024 36.3428 70.3956 36.3428 71.7592C36.3428 73.1016 36.5132 74.2841 36.8541 75.3068C37.2057 76.3295 37.7117 77.1286 38.3722 77.7038C39.0434 78.2791 39.8637 78.5668 40.8332 78.5668ZM65.0031 70.0014V84H57.1888V59.4545H64.6196V63.9609H64.8912C65.4346 62.4588 66.3614 61.2816 67.6718 60.4293C68.9822 59.5664 70.5429 59.1349 72.354 59.1349C74.0798 59.1349 75.5766 59.5238 76.8444 60.3015C78.1228 61.0685 79.1135 62.1445 79.8167 63.5295C80.5305 64.9038 80.882 66.5124 80.8714 68.3555V84H73.0571V69.8896C73.0677 68.5259 72.7215 67.4606 72.0184 66.6935C71.3259 65.9265 70.3618 65.543 69.126 65.543C68.3057 65.543 67.5812 65.7241 66.9527 66.0863C66.3348 66.4379 65.8554 66.9439 65.5145 67.6044C65.1842 68.2649 65.0138 69.0639 65.0031 70.0014ZM93.5236 70.0014V84H85.7093V59.4545H93.1401V63.9609H93.4118C93.9551 62.4588 94.8819 61.2816 96.1923 60.4293C97.5027 59.5664 99.0634 59.1349 100.874 59.1349C102.6 59.1349 104.097 59.5238 105.365 60.3015C106.643 61.0685 107.634 62.1445 108.337 63.5295C109.051 64.9038 109.403 66.5124 109.392 68.3555V84H101.578V69.8896C101.588 68.5259 101.242 67.4606 100.539 66.6935C99.8464 65.9265 98.8823 65.543 97.6465 65.543C96.8262 65.543 96.1017 65.7241 95.4732 66.0863C94.8553 66.4379 94.3759 66.9439 94.035 67.6044C93.7047 68.2649 93.5343 69.0639 93.5236 70.0014ZM125.704 84.4634C123.136 84.4634 120.92 83.9574 119.056 82.9453C117.202 81.9226 115.775 80.4684 114.773 78.5827C113.782 76.6864 113.287 74.4332 113.287 71.8232C113.287 69.2876 113.788 67.0717 114.789 65.1754C115.791 63.2685 117.202 61.7876 119.024 60.733C120.846 59.6676 122.992 59.1349 125.464 59.1349C127.211 59.1349 128.809 59.4066 130.258 59.9499C131.707 60.4933 132.959 61.2976 134.013 62.3629C135.068 63.4283 135.888 64.744 136.474 66.31C137.06 67.8654 137.353 69.6499 137.353 71.6634V73.6129H116.02V69.0746H130.082C130.071 68.2436 129.874 67.5032 129.491 66.8533C129.107 66.2035 128.58 65.6974 127.909 65.3352C127.248 64.9624 126.487 64.7759 125.624 64.7759C124.75 64.7759 123.967 64.973 123.275 65.3672C122.582 65.7507 122.033 66.2781 121.629 66.9492C121.224 67.6097 121.011 68.3608 120.989 69.2024V73.8207C120.989 74.8221 121.187 75.701 121.581 76.4574C121.975 77.2031 122.534 77.7837 123.259 78.1992C123.983 78.6147 124.846 78.8224 125.847 78.8224C126.54 78.8224 127.168 78.7266 127.733 78.5348C128.298 78.343 128.782 78.0607 129.187 77.6879C129.592 77.315 129.896 76.8569 130.098 76.3136L137.273 76.5213C136.975 78.13 136.32 79.5309 135.308 80.7241C134.306 81.9066 132.991 82.8281 131.361 83.4886C129.731 84.1385 127.845 84.4634 125.704 84.4634ZM152.802 84.4634C150.213 84.4634 147.992 83.9308 146.138 82.8654C144.295 81.8001 142.878 80.3192 141.887 78.4229C140.897 76.516 140.401 74.3107 140.401 71.8072C140.401 69.293 140.897 67.0877 141.887 65.1914C142.889 63.2844 144.311 61.7983 146.154 60.733C148.008 59.6676 150.218 59.1349 152.786 59.1349C155.055 59.1349 157.031 59.5451 158.714 60.3654C160.408 61.1857 161.729 62.3469 162.678 63.8491C163.636 65.3406 164.142 67.093 164.196 69.1065H156.893C156.744 67.8494 156.317 66.864 155.614 66.1502C154.922 65.4364 154.016 65.0795 152.898 65.0795C151.992 65.0795 151.199 65.3352 150.517 65.8466C149.835 66.3473 149.302 67.093 148.919 68.0838C148.546 69.0639 148.359 70.2784 148.359 71.7273C148.359 73.1761 148.546 74.4013 148.919 75.4027C149.302 76.3935 149.835 77.1445 150.517 77.6559C151.199 78.1566 151.992 78.407 152.898 78.407C153.622 78.407 154.261 78.2525 154.815 77.9435C155.38 77.6346 155.843 77.1818 156.206 76.5852C156.568 75.978 156.797 75.2429 156.893 74.38H164.196C164.121 76.4041 163.615 78.1726 162.678 79.6854C161.751 81.1982 160.446 82.3754 158.762 83.217C157.09 84.0479 155.103 84.4634 152.802 84.4634ZM182.049 59.4545V65.2074H166.565V59.4545H182.049ZM169.809 53.5739H177.623V76.2816C177.623 76.761 177.698 77.1499 177.847 77.4482C178.006 77.7358 178.236 77.9435 178.534 78.0714C178.832 78.1886 179.189 78.2472 179.604 78.2472C179.903 78.2472 180.217 78.2205 180.547 78.1673C180.888 78.1033 181.144 78.0501 181.314 78.0075L182.497 83.6484C182.124 83.755 181.597 83.8881 180.915 84.0479C180.244 84.2077 179.439 84.3089 178.502 84.3516C176.669 84.4368 175.098 84.2237 173.788 83.7124C172.488 83.1903 171.492 82.3807 170.799 81.2834C170.118 80.1861 169.787 78.8065 169.809 77.1445V53.5739ZM197.247 84.4634C194.679 84.4634 192.463 83.9574 190.599 82.9453C188.745 81.9226 187.318 80.4684 186.316 78.5827C185.325 76.6864 184.83 74.4332 184.83 71.8232C184.83 69.2876 185.331 67.0717 186.332 65.1754C187.334 63.2685 188.745 61.7876 190.567 60.733C192.389 59.6676 194.535 59.1349 197.007 59.1349C198.754 59.1349 200.352 59.4066 201.801 59.9499C203.25 60.4933 204.502 61.2976 205.556 62.3629C206.611 63.4283 207.431 64.744 208.017 66.31C208.603 67.8654 208.896 69.6499 208.896 71.6634V73.6129H187.563V69.0746H201.625C201.614 68.2436 201.417 67.5032 201.034 66.8533C200.65 66.2035 200.123 65.6974 199.452 65.3352C198.791 64.9624 198.03 64.7759 197.167 64.7759C196.293 64.7759 195.51 64.973 194.818 65.3672C194.125 65.7507 193.576 66.2781 193.172 66.9492C192.767 67.6097 192.554 68.3608 192.532 69.2024V73.8207C192.532 74.8221 192.729 75.701 193.124 76.4574C193.518 77.2031 194.077 77.7837 194.802 78.1992C195.526 78.6147 196.389 78.8224 197.39 78.8224C198.083 78.8224 198.711 78.7266 199.276 78.5348C199.841 78.343 200.325 78.0607 200.73 77.6879C201.135 77.315 201.439 76.8569 201.641 76.3136L208.816 76.5213C208.518 78.13 207.863 79.5309 206.851 80.7241C205.849 81.9066 204.533 82.8281 202.903 83.4886C201.274 84.1385 199.388 84.4634 197.247 84.4634ZM221.852 84.3516C220.041 84.3516 218.395 83.8828 216.914 82.9453C215.433 82.0078 214.251 80.6016 213.366 78.7266C212.482 76.8516 212.04 74.5238 212.04 71.7433C212.04 68.8562 212.498 66.4805 213.414 64.6161C214.331 62.7518 215.529 61.3722 217.01 60.4773C218.501 59.5824 220.105 59.1349 221.82 59.1349C223.109 59.1349 224.212 59.3587 225.128 59.8061C226.044 60.2429 226.8 60.8075 227.397 61.5C227.994 62.1925 228.446 62.9116 228.755 63.6573H228.915V51.2727H236.729V84H228.995V80.021H228.755C228.425 80.7773 227.956 81.4858 227.349 82.1463C226.742 82.8068 225.98 83.3395 225.064 83.7443C224.158 84.1491 223.088 84.3516 221.852 84.3516ZM224.569 78.2631C225.517 78.2631 226.326 77.9968 226.998 77.4641C227.669 76.9208 228.185 76.1591 228.548 75.179C228.91 74.1989 229.091 73.0483 229.091 71.7273C229.091 70.3849 228.91 69.229 228.548 68.2596C228.196 67.2901 227.679 66.5444 226.998 66.0224C226.326 65.5004 225.517 65.2393 224.569 65.2393C223.599 65.2393 222.779 65.5057 222.108 66.0384C221.436 66.571 220.925 67.3221 220.574 68.2915C220.233 69.261 220.062 70.4062 220.062 71.7273C220.062 73.0483 220.238 74.1989 220.589 75.179C220.941 76.1591 221.447 76.9208 222.108 77.4641C222.779 77.9968 223.599 78.2631 224.569 78.2631Z" fill="url(#paint0_linear_152_29172)"/>
<defs>
<linearGradient id="paint0_linear_152_29172" x1="130.5" y1="-52" x2="130.5" y2="187" gradientUnits="userSpaceOnUse">
<stop stop-color="white"/>
<stop offset="1" stop-color="white" stop-opacity="0"/>
</linearGradient>
</defs>
</svg>
