<svg width="29" height="32" viewBox="0 0 29 32" fill="none" xmlns="http://www.w3.org/2000/svg">
<path d="M6.90476 0C3.09932 0 0 3.41994 0 7.61905V24.381C0 28.5801 3.09932 32 6.90476 32H22.0952C25.9007 32 29 28.5801 29 24.381V7.61905C29 3.41994 25.9007 0 22.0952 0H6.90476ZM6.21429 9.14286H22.7857C22.91 9.14286 23.0272 9.15833 23.1377 9.19643L16.3503 16.6786C15.3284 17.8062 13.6649 17.8062 12.643 16.6786L5.8623 9.19643C5.97278 9.15833 6.09 9.14286 6.21429 9.14286ZM4.88188 10.2783L10.0739 16L4.88188 21.7217C4.84736 21.5998 4.83333 21.4705 4.83333 21.3333V10.6667C4.83333 10.5295 4.84736 10.4002 4.88188 10.2783ZM24.1181 10.2783C24.1526 10.4002 24.1667 10.5295 24.1667 10.6667V21.3333C24.1667 21.4705 24.1526 21.5998 24.1181 21.7217L18.9193 16L24.1181 10.2783ZM11.0476 17.0744L11.6626 17.7604C12.4428 18.6214 13.4714 19.0476 14.4933 19.0476C15.5221 19.0476 16.5437 18.6214 17.3239 17.7604L17.9456 17.0744L23.1377 22.8036C23.0272 22.8417 22.91 22.8571 22.7857 22.8571H6.21429C6.09 22.8571 5.97278 22.8417 5.8623 22.8036L11.0476 17.0744Z" fill="white"/>
</svg>
