<svg width="17" height="16" viewBox="0 0 17 16" fill="none" xmlns="http://www.w3.org/2000/svg">
<path d="M4.04762 0C1.81684 0 0 1.70997 0 3.80952V12.1905C0 14.29 1.81684 16 4.04762 16H12.9524C15.1832 16 17 14.29 17 12.1905V3.80952C17 1.70997 15.1832 0 12.9524 0H4.04762ZM3.64286 4.57143H13.3571C13.43 4.57143 13.4987 4.57917 13.5635 4.59821L9.58463 8.33929C8.98559 8.9031 8.01046 8.9031 7.41141 8.33929L3.43652 4.59821C3.50129 4.57917 3.57 4.57143 3.64286 4.57143ZM2.86179 5.13914L5.90541 8L2.86179 10.8609C2.84155 10.7999 2.83333 10.7352 2.83333 10.6667V5.33333C2.83333 5.26476 2.84155 5.20009 2.86179 5.13914ZM14.1382 5.13914C14.1584 5.20009 14.1667 5.26476 14.1667 5.33333V10.6667C14.1667 10.7352 14.1584 10.7999 14.1382 10.8609L11.0906 8L14.1382 5.13914ZM6.47619 8.5372L6.83668 8.88021C7.29406 9.31069 7.897 9.52381 8.49605 9.52381C9.09914 9.52381 9.69803 9.31069 10.1554 8.88021L10.5199 8.5372L13.5635 11.4018C13.4987 11.4208 13.43 11.4286 13.3571 11.4286H3.64286C3.57 11.4286 3.50129 11.4208 3.43652 11.4018L6.47619 8.5372Z" fill="white"/>
</svg>
